<svg xmlns="http://www.w3.org/2000/svg" width="477.35" height="400"><path fill-rule="evenodd" clip-rule="evenodd" fill="#FFF" d="M140.85 121.45l77.2 77.15L416.65.1l60.7 60.65L218.05 320 80.2 182.1z"/><path fill-rule="evenodd" clip-rule="evenodd" fill="#FFF" d="M382.425 2.575L355 30H30v340h340V200l30-30v200c0 8.3-2.934 15.366-8.8 21.2-5.834 5.866-12.9 8.8-21.2 8.8H30c-8.3 0-15.383-2.934-21.25-8.8C2.917 385.366 0 378.3 0 370V30c0-8.3 2.917-15.383 8.75-21.25C14.617 2.917 21.7 0 30 0h340c4.504 0 8.646.858 12.425 2.575z"/></svg>