<svg width="42" height="26" viewBox="0 0 42 26" fill="none" xmlns="http://www.w3.org/2000/svg"><rect x="0.499969" y="0.5" width="41" height="25" fill="#EE1C25" stroke="#E5E5E5"/>
<path d="M7.37933 4.83954L8.42463 6.59127L10.7587 6.87372L9.06899 8.23855L9.46707 10.1635L7.37933 9.25445L5.28873 10.1635L5.68966 8.23855L4 6.87372L6.33403 6.59127L7.37933 4.83954ZM13.5624 8.20294L13.9805 8.90316L14.9112 9.01709L14.2382 9.56302L14.3957 10.3321L13.5624 9.96891L12.729 10.3321L12.8865 9.56065L12.2135 9.01472L13.1442 8.90316L13.5624 8.20294ZM13.0698 5.14099L13.8316 5.5991L14.7193 5.338L14.4272 6.08331L15 6.70283H14.0578L13.5223 7.34607L13.233 6.60313L12.328 6.38001L13.0927 5.92191L13.0698 5.14099ZM11.8469 3.02611L11.6665 3.79516L12.3309 4.35058L11.3944 4.44553L10.9591 5.14099L10.5582 4.43366L9.6303 4.30548L10.3176 3.77142L10.1773 3L11.0021 3.3774L11.8469 3.02611ZM11.8469 10.8875L11.6665 11.6542L12.3309 12.2096L11.3944 12.3045L10.9591 13L10.5582 12.2927L9.6303 12.1645L10.3176 11.6304L10.1773 10.859L11.0021 11.2364L11.8469 10.8875Z" fill="#FED953"/></svg>
