<svg xmlns="http://www.w3.org/2000/svg" viewBox="0 0 37 48"><g fill-rule="evenodd" clip-rule="evenodd"><path d="M9.96 22.18a2.07 2.07 0 0 1 1.47-.8 2.18 2.18 0 1 1-1.94 2.4 2.13 2.13 0 0 1 .47-1.6Zm1.83-3.7a2.13 2.13 0 0 1-.12 1.68 2.19 2.19 0 0 1-2.93.98 2.07 2.07 0 0 1-1.1-1.23 2.13 2.13 0 0 1 .12-1.67 2.07 2.07 0 0 1 1.26-1.1 2.2 2.2 0 0 1 2.77 1.35Zm.23-9.15a2.08 2.08 0 0 1 1.56-.59A2.2 2.2 0 0 1 15 12.53a2.19 2.19 0 1 1-2.97-3.2Zm-2.74 3.31a2.13 2.13 0 0 1 2.98.76 2.19 2.19 0 1 1-2.98-.75v-.01Zm16.32 9.08a2.2 2.2 0 1 1-2.85 3.22 2.2 2.2 0 0 1-.42-1.62c.04-.29.14-.56.29-.8a2.09 2.09 0 0 1 1.33-1.01 2.16 2.16 0 0 1 1.66.23l-.01-.02Zm-7.24 3.82a2.18 2.18 0 1 1 4.15 1.37 2.13 2.13 0 0 1-2.73 1.38c-.55-.18-1-.57-1.26-1.08a2.13 2.13 0 0 1-.16-1.67Zm-1-.71a2.19 2.19 0 1 1-3.62.33c.13-.25.32-.47.55-.65a2.17 2.17 0 0 1 3.07.32Zm7.53-7.1a2.2 2.2 0 1 1 .83 3.55c-.27-.1-.52-.26-.73-.47a2.13 2.13 0 0 1-.1-3.09Zm-.33-5.03a2.13 2.13 0 0 1 1.62-.36 2.13 2.13 0 0 1 1.42.91 2.17 2.17 0 0 1-2.17 3.39 2.04 2.04 0 0 1-1.42-.9 2.13 2.13 0 0 1-.36-1.63 2.13 2.13 0 0 1 .9-1.42Zm-4.37-3.44a2.09 2.09 0 0 1-.35 1.63 2.04 2.04 0 0 1-1.42.9 2.18 2.18 0 0 1-2.19-3.39 2.17 2.17 0 0 1 3.96.86Zm.4.83a2.18 2.18 0 1 1 0 1.66 2.05 2.05 0 0 1 0-1.7v.04Z"/><path opacity=".8" d="M19.7 29.09a1.26 1.26 0 0 1 .89.43 1.23 1.23 0 0 1 .35.94 1.3 1.3 0 0 1-.87 1.18c-.16.06-.34.08-.5.06a1.31 1.31 0 0 1 .13-2.61Zm4.67.04c.08.34.03.7-.15 1a1.16 1.16 0 0 1-.82.57 1.25 1.25 0 0 1-.98-.15 1.31 1.31 0 0 1-.45-1.8 1.33 1.33 0 0 1 2.2-.09c.1.14.17.3.2.48v-.01ZM12.51 28a1.26 1.26 0 0 1 .98.21 1.3 1.3 0 0 1-.55 2.37 1.32 1.32 0 0 1-1.33-.6c-.1-.14-.15-.3-.18-.48a1.31 1.31 0 0 1 .6-1.33c.15-.1.31-.15.48-.17Zm2.35 1.88a1.23 1.23 0 0 1 .71-.7c.32-.16.68-.19 1.01-.08a1.25 1.25 0 0 1 .7.67 1.26 1.26 0 0 1 .07 1.01 1.2 1.2 0 0 1-.66.71 1.28 1.28 0 0 1-1.44-.2 1.2 1.2 0 0 1-.28-.4 1.25 1.25 0 0 1-.1-1Zm-5.85-3.55a1.19 1.19 0 0 1 .95-.28 1.25 1.25 0 0 1 .88.5 1.26 1.26 0 0 1 .27.97 1.28 1.28 0 0 1-.5.86 1.23 1.23 0 0 1-.96.27 1.2 1.2 0 0 1-.87-.5 1.3 1.3 0 0 1 .23-1.85v.03ZM7.05 23.4a1.3 1.3 0 0 1 1.68 1.74 1.24 1.24 0 0 1-.71.7 1.27 1.27 0 0 1-1 0 1.23 1.23 0 0 1-.7-.7 1.3 1.3 0 0 1 .7-1.7l.03-.04Zm-.83-.71a1.26 1.26 0 0 1-.95-.3 1.29 1.29 0 0 1-.15-1.85 1.28 1.28 0 0 1 .88-.47 1.31 1.31 0 1 1 .22 2.6v.02Zm-1.26-5.93a1.25 1.25 0 0 1 .98-.2A1.32 1.32 0 0 1 7 17.55c.03.17.03.34-.01.51a1.3 1.3 0 0 1-1.54 1.04 1.31 1.31 0 0 1-.48-2.37v.01Zm.16-2.96c.14-.3.4-.54.7-.67a1.33 1.33 0 0 1 1.72 1.37c-.02.17-.07.34-.15.49a1.27 1.27 0 0 1-1.27.71 1.3 1.3 0 0 1-.5-.14 1.26 1.26 0 0 1-.64-.77 1.27 1.27 0 0 1 .14-.99Zm1.7-3.5a1.24 1.24 0 0 1 .92-.39 1.22 1.22 0 0 1 .93.36 1.3 1.3 0 0 1 .4.92 1.26 1.26 0 0 1-.4.92 1.22 1.22 0 0 1-.92.4 1.24 1.24 0 0 1-.94-.35 1.28 1.28 0 0 1-.01-1.85h.03Zm2.63-2.83a1.3 1.3 0 0 1 1.93 1.48 1.26 1.26 0 0 1-.61.8 1.3 1.3 0 0 1-1 .12 1.28 1.28 0 0 1-.34-2.37l.02-.03ZM12 6a1.33 1.33 0 0 1 1.81-.44 1.32 1.32 0 0 1 .54.86 1.27 1.27 0 0 1-.15.99 1.2 1.2 0 0 1-.81.59 1.3 1.3 0 0 1-1.58-.97 1.22 1.22 0 0 1 .17-1l.02-.03Zm16.55 20.2a1.22 1.22 0 0 1-.93-.36 1.25 1.25 0 0 1-.4-.92 1.3 1.3 0 0 1 1.28-1.34 1.3 1.3 0 0 1 .94.37 1.27 1.27 0 0 1 .37.93 1.25 1.25 0 0 1-.36.93 1.2 1.2 0 0 1-.9.39Zm2.61-3.93a1.28 1.28 0 0 1-.76.66c-.33.1-.7.07-1-.08a1.32 1.32 0 1 1 1.86-1.57 1.27 1.27 0 0 1-.12 1h.02Zm-1.7-3.36a1.21 1.21 0 0 1-.22-.98 1.3 1.3 0 0 1 .54-.86 1.33 1.33 0 0 1 1.82.35 1.29 1.29 0 0 1 .2.98 1.3 1.3 0 0 1-.55.84 1.23 1.23 0 0 1-.98.2 1.2 1.2 0 0 1-.83-.53h.02Zm-4.02 7.5c.3-.16.65-.2.98-.11a1.27 1.27 0 0 1 .8.6 1.3 1.3 0 0 1 .12 1 1.23 1.23 0 0 1-.62.8 1.28 1.28 0 0 1-1.78-.49 1.2 1.2 0 0 1-.12-.98 1.23 1.23 0 0 1 .62-.81Zm.71-16.39a1.21 1.21 0 0 1-.87-.48 1.24 1.24 0 0 1-.28-.99 1.2 1.2 0 0 1 .49-.86 1.26 1.26 0 0 1 .97-.27 1.23 1.23 0 0 1 .88.48 1.26 1.26 0 0 1 .26.97 1.23 1.23 0 0 1-.47.89 1.25 1.25 0 0 1-1 .26h.02Zm-9.23-5.5a1.24 1.24 0 0 1 .76.66 1.3 1.3 0 0 1-.2 1.44 1.31 1.31 0 0 1-1.42.37 1.26 1.26 0 0 1-.7-.67 1.33 1.33 0 0 1-.07-1.01 1.22 1.22 0 0 1 .66-.71c.3-.14.63-.17.94-.08h.03Zm1.88 1.9a1.28 1.28 0 0 1 .2-1.43c.11-.12.25-.22.4-.28a1.23 1.23 0 0 1 1-.05 1.2 1.2 0 0 1 .76.66 1.23 1.23 0 0 1 .05 1 1.3 1.3 0 0 1-2.41.14v-.04Zm4.32-.88a1.3 1.3 0 0 1 1.28 2.05 1.24 1.24 0 0 1-.84.54c-.35.05-.7-.03-1-.23a1.25 1.25 0 0 1-.51-.84 1.3 1.3 0 0 1 .22-.98 1.25 1.25 0 0 1 .85-.56v.02Zm5.93 8.32a1.28 1.28 0 0 1 .92-.49 1.26 1.26 0 0 1 .96.3 1.28 1.28 0 0 1 .46.89 1.25 1.25 0 0 1-.3.96 1.22 1.22 0 0 1-.89.46 1.31 1.31 0 0 1-1.42-1.18 1.28 1.28 0 0 1 .27-.96v.02Zm-.98-3.63a1.3 1.3 0 0 1 1.72.7 1.31 1.31 0 0 1 0 1.02 1.23 1.23 0 0 1-.7.7 1.3 1.3 0 0 1-1.71-.7 1.34 1.34 0 0 1 0-1.01 1.26 1.26 0 0 1 .7-.73v.02Z"/><path opacity=".6" d="M17.32 32.9a1.1 1.1 0 0 1 .96-.75c.14-.01.29 0 .42.06a1.08 1.08 0 0 1 .64.54 1.03 1.03 0 0 1 .07.84 1.04 1.04 0 0 1-.55.63 1.06 1.06 0 0 1-.83.06 1.02 1.02 0 0 1-.63-.55 1.1 1.1 0 0 1-.08-.83Zm5.35-1.42a1.04 1.04 0 0 1 .76.34 1.07 1.07 0 0 1 .3.79 1.04 1.04 0 0 1-.34.78 1.07 1.07 0 0 1-.8.3 1.03 1.03 0 0 1-.75-.34 1.13 1.13 0 0 1-.2-1.2c.05-.13.14-.24.24-.34a1.09 1.09 0 0 1 .79-.31v-.02Zm4.97-1.1a1.1 1.1 0 0 1-1.6 1.22 1.1 1.1 0 0 1-.4-1.5 1.07 1.07 0 0 1 .67-.49 1.02 1.02 0 0 1 .82.11 1.09 1.09 0 0 1 .52.67l-.01-.01ZM10 32.08a1.06 1.06 0 0 1-.7-.39 1.03 1.03 0 0 1-.25-.79 1.05 1.05 0 0 1 .4-.74 1.1 1.1 0 0 1 1.74.53 1.08 1.08 0 0 1-.35 1.13 1.12 1.12 0 0 1-.82.27l-.02-.01Zm-2.83-4.9a1.02 1.02 0 0 1 .58.58 1.07 1.07 0 0 1 0 .84 1.06 1.06 0 0 1-.58.6c-.27.1-.57.1-.83 0a1.06 1.06 0 0 1-.6-.6 1.01 1.01 0 0 1 0-.83 1.04 1.04 0 0 1 .6-.6.99.99 0 0 1 .9.02l-.07-.01Zm5.96 4.93a1.06 1.06 0 0 1 .71-.46 1.1 1.1 0 0 1 1.1 1.69 1.09 1.09 0 0 1-1.5.29 1 1 0 0 1-.46-.71 1.02 1.02 0 0 1 .19-.8l-.04-.01ZM3.3 24.77a1.1 1.1 0 1 1 2.16-.26 1.07 1.07 0 0 1-.22.81c-.17.22-.43.37-.7.42a1.07 1.07 0 0 1-1.21-.97H3.3Zm-.82-5.2a1.09 1.09 0 0 1 .81-.17 1.05 1.05 0 0 1 .71.44 1.07 1.07 0 0 1 .19.82 1 1 0 0 1-.45.71 1.06 1.06 0 0 1-.82.18 1 1 0 0 1-.7-.44 1.09 1.09 0 0 1-.19-.82 1.07 1.07 0 0 1 .45-.72Zm1.59-3.74a1.05 1.05 0 0 1-.05.83c-.13.26-.36.46-.63.56A1.1 1.1 0 0 1 2 16.5a1.03 1.03 0 0 1 .06-.83 1.09 1.09 0 0 1 1.46-.5 1.04 1.04 0 0 1 .55.65Zm-.68-2.98c-.2-.2-.33-.47-.35-.75a1.06 1.06 0 0 1 .29-.78 1.07 1.07 0 0 1 1.54-.07 1.05 1.05 0 0 1 .35.76 1.04 1.04 0 0 1-.29.78 1.01 1.01 0 0 1-.75.35 1.07 1.07 0 0 1-.79-.3Zm4.08-4.16a1.05 1.05 0 0 1-.5.66 1.07 1.07 0 0 1-.82.13 1.06 1.06 0 0 1-.71-.5c-.15-.25-.2-.55-.13-.83a1.09 1.09 0 0 1 2.03-.3 1 1 0 0 1 .13.84Zm1.1-2.93a1.04 1.04 0 0 1 .1-.83 1.07 1.07 0 0 1 .66-.52 1.01 1.01 0 0 1 .83.12 1.07 1.07 0 0 1 .5.67 1.05 1.05 0 0 1-.1.83 1.1 1.1 0 0 1-.67.5 1.12 1.12 0 0 1-1.34-.77h.02Zm5.67-2.9A1.1 1.1 0 0 1 13 4.58a1.05 1.05 0 0 1-.35-.25 1.1 1.1 0 0 1 .07-1.52 1.1 1.1 0 0 1 1.55.05l-.03-.02Zm15 23.96c.26-.14.56-.19.84-.11a1.02 1.02 0 0 1 .67.49 1.1 1.1 0 0 1-.77 1.65c-.14.02-.29.01-.43-.03a1.1 1.1 0 0 1-.82-.89 1.1 1.1 0 0 1 .52-1.11Zm2.09-3.55a1.09 1.09 0 0 1 1.55-.06 1.06 1.06 0 0 1 .35.76 1.02 1.02 0 0 1-.3.78 1.07 1.07 0 0 1-1.53.07 1.05 1.05 0 0 1-.36-.76 1.1 1.1 0 0 1 .25-.77l.04-.02Zm2.36-4.43a1.08 1.08 0 0 1 .56.64 1.03 1.03 0 0 1-.06.83 1.04 1.04 0 0 1-.63.55c-.27.1-.57.07-.83-.06a1.1 1.1 0 0 1 .96-1.96Zm.5-3.15a1.08 1.08 0 0 1-1.97.44 1.06 1.06 0 0 1-.2-.81.99.99 0 0 1 .46-.71 1.03 1.03 0 0 1 .82-.18 1.01 1.01 0 0 1 .85 1.28l.03-.02ZM18.2 3.9a.99.99 0 0 1-.82.07 1.1 1.1 0 0 1-.7-1.42 1.04 1.04 0 0 1 .53-.63 1.1 1.1 0 0 1 1.59.9c0 .13-.01.28-.06.41a1 1 0 0 1-.54.67Zm4.4-1.42a1.1 1.1 0 0 1-.02 1.82c-.13.08-.26.13-.4.15-.29.06-.58 0-.82-.15a1.02 1.02 0 0 1-.44-.7 1.08 1.08 0 0 1 .47-1.12c.12-.08.26-.13.4-.15a1 1 0 0 1 .8.16v-.01Zm2.66 1.73a1.09 1.09 0 0 1 1.38 1.68.97.97 0 0 1-.8.24 1.1 1.1 0 0 1-.97-1.2c.03-.27.17-.53.39-.71Zm5.68 6.52a1.09 1.09 0 1 1 .98 1.76 1.08 1.08 0 0 1-1.21-1.37c.04-.14.12-.27.21-.38h.02ZM28.25 7.4a1.09 1.09 0 0 1 1.42-.6 1.1 1.1 0 0 1 .7 1c0 .15-.03.3-.1.42a1.06 1.06 0 0 1-.58.6 1.02 1.02 0 0 1-.83 0 1.14 1.14 0 0 1-.6-.6 1.1 1.1 0 0 1 0-.82Z"/><path opacity=".4" d="M21.44 34.7c.13-.11.3-.17.46-.16.17 0 .33.06.44.18a.57.57 0 0 1 .17.46.63.63 0 0 1-.65.62.6.6 0 0 1-.44-.2.65.65 0 0 1-.18-.46.7.7 0 0 1 .2-.44Zm4.97-1.95a.65.65 0 0 1 .48.08.58.58 0 0 1 .3.39.57.57 0 0 1-.08.47.6.6 0 0 1-.39.3.64.64 0 0 1-.48-.06.63.63 0 0 1-.28-.4.64.64 0 0 1 .07-.48.59.59 0 0 1 .38-.3Zm4.26-3.01a.6.6 0 0 1 .39.29c.08.14.1.31.07.47a.61.61 0 0 1-.3.39.64.64 0 0 1-.96-.45.57.57 0 0 1 .02-.25.64.64 0 0 1 .3-.4.58.58 0 0 1 .48-.05ZM4.4 27.99a.63.63 0 0 1 .34.34.64.64 0 0 1-.34.8.64.64 0 0 1-.5 0 .61.61 0 0 1-.34-.82.62.62 0 0 1 .84-.32Zm12.3 8.1a.55.55 0 0 1-.36-.3.64.64 0 0 1 0-.5.55.55 0 0 1 .55-.41c.08 0 .16.01.24.05a.61.61 0 0 1 .38.3c.06.17.06.34 0 .5a.55.55 0 0 1-.3.36.63.63 0 0 1-.51 0Zm-5.28-1.48a.67.67 0 0 1 .09-.47.64.64 0 0 1 1.15.51.61.61 0 0 1-.52.48.59.59 0 0 1-.46-.1.62.62 0 0 1-.26-.42Zm-3.81-1.84a.6.6 0 0 1-.42-.24.58.58 0 0 1-.14-.46.61.61 0 0 1 .24-.43.59.59 0 0 1 .45-.13.63.63 0 0 1 .43.24.55.55 0 0 1 .14.44.65.65 0 0 1-.7.58ZM2.2 24.65a.62.62 0 0 1-.44.24.63.63 0 0 1-.7-.57.63.63 0 0 1 .56-.7.63.63 0 0 1 .71.56.59.59 0 0 1-.13.47Zm-.92-5.2a.58.58 0 0 1-.27.4.55.55 0 0 1-.47.12.61.61 0 0 1-.4-.28.58.58 0 0 1-.1-.47c.02-.16.11-.3.25-.4a.63.63 0 0 1 .47-.11.66.66 0 0 1 .52.49c.02.08.02.16 0 .25ZM.8 13.8a.64.64 0 0 1 .74.91.56.56 0 0 1-.36.31.61.61 0 0 1-.5 0 .62.62 0 0 1-.3-.36.67.67 0 0 1 0-.5.65.65 0 0 1 .42-.36Zm2.35-3.61a.66.66 0 0 1-.44.2.62.62 0 0 1-.46-.17.66.66 0 0 1-.21-.44.62.62 0 0 1 .18-.45.57.57 0 0 1 .45-.2.56.56 0 0 1 .45.16c.12.12.2.28.2.45a.55.55 0 0 1-.17.45ZM5.3 5.27c.15-.08.32-.1.48-.06a.56.56 0 0 1 .38.28.61.61 0 0 1 .08.49.64.64 0 0 1-.29.38.62.62 0 0 1-.47.08.63.63 0 0 1-.4-.3.6.6 0 0 1-.06-.48.58.58 0 0 1 .28-.39Zm4.15-3.1a.62.62 0 0 1 .77.45c.05.16.02.34-.06.49a.6.6 0 0 1-.4.28.59.59 0 0 1-.48-.05.71.71 0 0 1-.29-.4.71.71 0 0 1 .06-.5.65.65 0 0 1 .4-.28Zm24.1 23.5a.7.7 0 0 1 .46.16c.12.13.19.3.2.47 0 .17-.07.33-.19.45a.58.58 0 0 1-.43.2.57.57 0 0 1-.46-.17.63.63 0 0 1-.2-.48.55.55 0 0 1 .18-.44.61.61 0 0 1 .44-.19Zm2.28-4.26a.61.61 0 0 1-.4.8.62.62 0 0 1-.48 0 .59.59 0 0 1-.32-.35.71.71 0 0 1 0-.49.61.61 0 0 1 .36-.33.64.64 0 0 1 .7.14c.06.06.1.14.14.22v.01Zm.33-4.65a.57.57 0 0 1-.26.4.6.6 0 0 1-.48.12.55.55 0 0 1-.4-.27.61.61 0 0 1-.11-.47.65.65 0 0 1 .75-.51c.16.03.3.13.4.27a.6.6 0 0 1 .1.45v.01ZM24.1 2.22a.66.66 0 0 1-.48-.1.56.56 0 0 1-.25-.41.61.61 0 0 1 .1-.48.6.6 0 0 1 .4-.25.64.64 0 0 1 .49.1.6.6 0 0 1 .25.4.57.57 0 0 1-.1.47.65.65 0 0 1-.38.26l-.03.01ZM34.53 12.4a.6.6 0 0 1-.46-.14.6.6 0 0 1-.24-.41.63.63 0 0 1 .57-.71.62.62 0 0 1 .56 1.01.6.6 0 0 1-.43.25Zm-2.84-5.6a.62.62 0 0 1 .82.35.6.6 0 0 1 0 .5.55.55 0 0 1-.34.33.65.65 0 0 1-.49 0 .67.67 0 0 1-.34-.35.64.64 0 0 1 0-.5.62.62 0 0 1 .37-.32h-.02Zm-3.7-3.38a.59.59 0 0 1 .46-.13.58.58 0 0 1 .43.24.6.6 0 0 1 .07.69.63.63 0 0 1-.16.19.61.61 0 0 1-.46.14.66.66 0 0 1-.57-.71.65.65 0 0 1 .25-.42H28ZM18.6.92a.63.63 0 0 1 0-.48.62.62 0 0 1 .99-.29c.06.06.11.13.15.2a.57.57 0 0 1 .04.49.59.59 0 0 1-.33.36.56.56 0 0 1-.47.04.66.66 0 0 1-.38-.32Zm-5 .05c0-.17.08-.33.2-.45a.61.61 0 0 1 .45-.17c.17 0 .33.07.45.2a.63.63 0 0 1 .17.46.62.62 0 0 1-.2.44.58.58 0 0 1-.46.17.66.66 0 0 1-.45-.2.71.71 0 0 1-.17-.45Z"/><path d="M6.32 42.53c-.24 0-.4 0-.48-.04v-.32h1.98c.36-.04.73-.06 1.1-.06.52-.03 1.04.14 1.46.47a1.42 1.42 0 0 1 .54 1.07c0 .3-.1.59-.3.82-.24.27-.55.46-.9.56l.15.22.3.45.71 1.16c.1.19.22.37.36.54.1.07.21.13.34.17.1.03.2.09.3.15v.23H9.95l-.16-.3c-.1-.15-.18-.32-.26-.5-.13-.28-.35-.7-.7-1.37a1.9 1.9 0 0 0-.32-.5.83.83 0 0 0-.46-.1H7.8v2.15c.1.06.21.1.32.12.2.04.41.1.6.17.02.1.02.22 0 .33h-.28l-1.14-.09h-.2l-.62.05h-.71V47.62c.11-.04.23-.07.35-.08.14-.02.27-.05.4-.1v-4.85l-.2-.06Zm1.5.08v2.14h.3c.39.04.77-.06 1.09-.27a.91.91 0 0 0 .31-.71c0-.18-.02-.36-.07-.53-.04-.13-.11-.26-.2-.37a1.1 1.1 0 0 0-.43-.26c-.2-.06-.42-.08-.63-.07h-.35l-.03.07ZM0 42.07l1.06.07H3c.28-.01.56.01.84.06.26.04.5.14.7.3.2.14.35.34.45.55.12.22.18.46.18.71a1.7 1.7 0 0 1-.49 1.27 1.67 1.67 0 0 1-1.23.48 1.86 1.86 0 0 1-.94-.25v-.35h.35a1 1 0 0 0 .64-.21 1.07 1.07 0 0 0 .35-.89c0-.24-.05-.49-.15-.7a.8.8 0 0 0-.36-.38c-.2-.1-.42-.14-.64-.14a.86.86 0 0 0-.48.1.34.34 0 0 0-.06.11v4.73l.9.12V48H1.47c-.35 0-.7.02-1.05.07H.16v-.32l.27-.09c.17-.05.34-.12.5-.2a.71.71 0 0 0 .03-.24v-.5l-.07-2.66c0-.68 0-1.04-.04-1.1a.45.45 0 0 0-.11-.2.38.38 0 0 0-.25-.1 3.71 3.71 0 0 1-.5-.1l.02-.5Zm14.77 2.71a.64.64 0 0 0-.2-.3.45.45 0 0 0-.3-.09 1 1 0 0 0-.75.37c-.23.27-.35.62-.33.98-.01.43.14.86.43 1.19a1.23 1.23 0 0 0 1.35.37c.11-.04.21-.1.3-.17l.2-.19.18-.21.11.06c.06.02.12.06.16.11-.1.32-.3.6-.59.77-.35.23-.76.34-1.17.32-.3 0-.6-.06-.88-.18a1.62 1.62 0 0 1-1.01-1.08c-.07-.2-.1-.39-.1-.59a2 2 0 0 1 .12-.65 2.13 2.13 0 0 1 1.13-1.23c.32-.13.66-.2 1-.2.38-.04.76.05 1.09.25a.63.63 0 0 1 .3.48c0 .14-.04.27-.12.38a.46.46 0 0 1-.34.13.53.53 0 0 1-.33-.12.92.92 0 0 1-.25-.4Zm2.02.08a1.89 1.89 0 0 1 .98-.68c.23-.06.47-.1.7-.1a1.94 1.94 0 0 1 1.47.56 1.97 1.97 0 0 1 .57 1.35c.01.33-.05.66-.19.96-.15.34-.41.63-.74.82-.34.18-.71.27-1.1.27A2.13 2.13 0 0 1 16.6 47a2.2 2.2 0 0 1-.1-1.59c.06-.2.16-.4.3-.56Zm9.33-.7c.15-.05.32-.07.48-.07a1.31 1.31 0 0 1 .98.38c.25.27.37.62.36.99v1.81c0 .06.02.12.06.17.1.05.2.08.3.1.06 0 .11.03.17.06v.23H27.62c-.36 0-.72.01-1.08.04a.7.7 0 0 1 0-.18v-.06l.39-.15a.25.25 0 0 0 .07-.1v-1.74c0-.18-.02-.35-.05-.53a.92.92 0 0 0-.13-.33.96.96 0 0 0-.24-.19.67.67 0 0 0-.3-.07c-.18 0-.36.05-.52.14-.18.1-.34.25-.46.42v2.02c-.01.12 0 .24.06.35a.8.8 0 0 0 .44.12l.14.04a.6.6 0 0 1 0 .17v.1h-1.53c-.12 0-.32 0-.6.05h-.08v-.27l.48-.06h.06a.28.28 0 0 0 .06-.1 1.9 1.9 0 0 0 0-.37v-1.22c.01-.3 0-.58-.05-.86a.61.61 0 0 0-.26-.35.77.77 0 0 0-.48-.14c-.22 0-.44.05-.63.17a.71.71 0 0 0-.31.3v2.25a.7.7 0 0 0 0 .12v.07l.21.05.25.08a.7.7 0 0 1-.04.27h-1.04c-.22 0-.5 0-.84.04h-.12v-.28a1.26 1.26 0 0 0 .52-.1l.02-.01.02-.04v-2.17a.43.43 0 0 0-.1-.31c-.15-.1-.32-.18-.5-.22v-.18l.2-.05c.25-.04.5-.12.72-.24.15-.1.28-.22.4-.36h.24V44.62c.22-.18.46-.33.71-.45a1.81 1.81 0 0 1 1.36.05c.22.11.41.29.54.5.16-.15.34-.3.53-.42.14-.07.29-.12.44-.15Zm-8.52.99c-.06.34-.08.69-.07 1.03 0 .37.05.58.05.64.04.18.1.36.19.52.07.1.17.19.28.25.15.07.31.1.47.1.2 0 .4-.07.55-.2.17-.19.29-.42.32-.66.06-.32.08-.63.07-.95.02-.4-.08-.8-.3-1.13a.86.86 0 0 0-.7-.34c-.2 0-.41.06-.57.19-.16.15-.27.34-.31.55h.02Zm16.26-1a2 2 0 0 1 .48-.06 1.31 1.31 0 0 1 .99.38c.23.27.36.63.34.99v1.81c0 .06.02.12.06.17.1.05.2.08.3.1.05 0 .11.03.16.06v.23H35.35c-.36 0-.71.01-1.07.04a.7.7 0 0 1 0-.18v-.06l.38-.15a.25.25 0 0 0 .07-.1c.02-.16.02-.32 0-.48v-1.26c0-.18-.01-.35-.04-.53a.92.92 0 0 0-.13-.33.96.96 0 0 0-.24-.19.67.67 0 0 0-.3-.07c-.19 0-.36.05-.52.14-.19.1-.34.25-.46.42v2.02c-.02.12 0 .24.06.35a.8.8 0 0 0 .4.14l.14.04v.27h-1.53c-.11 0-.32 0-.6.05h-.08v-.27l.48-.06h.06c0-.05.05-.07.05-.1.02-.12.02-.24 0-.36V45.9a4 4 0 0 0-.05-.86.61.61 0 0 0-.26-.35.77.77 0 0 0-.47-.14c-.2.01-.4.08-.57.19a.71.71 0 0 0-.31.3v2.25a.7.7 0 0 0 0 .12v.07l.2.06c.1.01.18.04.26.07a.7.7 0 0 1 0 .11v.16H29.73c-.23 0-.51 0-.84.05h-.13V47.65h.1c.14 0 .29-.04.42-.09a.07.07 0 0 0 .05-.06v-2.19a.43.43 0 0 0-.1-.31c-.15-.1-.32-.18-.5-.22v-.18l.2-.05a1.58 1.58 0 0 0 1.11-.6h.25V44.62c.22-.18.46-.33.71-.45a1.81 1.81 0 0 1 1.36.05c.22.11.41.29.54.5.16-.15.34-.3.53-.42.13-.07.27-.12.42-.15h.02Z"/></g></svg>