<svg width="62" height="79" viewBox="0 0 62 79" fill="none" xmlns="http://www.w3.org/2000/svg">
<path fill-rule="evenodd" clip-rule="evenodd" d="M23.6407 0H39.4927L44.6097 5.45079L44.582 5.52805L37.9027 24.202H25.0934L18.3406 5.44837L23.6407 0ZM27.1628 23.9291H31.8329L40.0348 17.4232L41.8838 12.2561L27.1628 23.9291ZM44.1267 5.33006L41.938 3.00125L23.1215 17.9218L24.2611 21.0848L44.1267 5.33006ZM20.6413 11.038L21.6785 13.9173L38.8905 0.270426H34.2228L20.6413 11.038ZM27.7302 0.275256H23.7551L18.6538 5.51839L19.2007 7.03592L27.7302 0.275256ZM40.0661 25.3791L42.6475 18.22V18.2248C53.9957 22.8354 62 33.97 62 46.9806C62 64.1105 48.121 78.0073 31.0006 78.0073C13.8802 78.0073 0 64.1153 0 46.9806C0 33.7007 8.32834 22.3814 20.0415 17.958L22.8963 25.0084C13.9633 28.3055 7.59838 36.9 7.59838 46.9806C7.59838 59.9116 18.0732 70.3967 30.997 70.3967C43.9207 70.3967 54.4004 59.9116 54.4004 46.9758C54.4004 37.2585 48.4884 28.9236 40.0661 25.3791ZM37.5125 49.3565H46.6515C46.7529 48.6321 46.8044 47.9016 46.8057 47.1702C46.8047 43.2502 45.3379 39.4729 42.6946 36.5837C40.0513 33.6944 36.4236 31.903 32.5271 31.5628C28.6307 31.2227 24.7485 32.3586 21.6466 34.7463C18.5448 37.1341 16.4485 40.6003 15.7713 44.4611H25.0055C25.1285 42.8564 25.8618 41.3604 27.0537 40.2821C28.2457 39.2037 29.8054 38.6253 31.4106 38.6664C33.0159 38.7074 34.5441 39.3648 35.6796 40.5027C36.8151 41.6406 37.4713 43.1722 37.5125 44.781V46.0933H15.575C15.5509 46.4482 15.534 46.8068 15.534 47.1702C15.534 50.9934 16.9285 54.6848 19.455 57.5494C21.9815 60.4139 25.4657 62.254 29.2515 62.7232C33.0374 63.1924 36.8638 62.2583 40.0104 60.0969C43.157 57.9354 45.4067 54.6956 46.3359 50.9875H37.5125V51.025H37.4968C37.3849 52.6076 36.6786 54.0889 35.5203 55.1704C34.362 56.2519 32.8378 56.8533 31.2548 56.8533C29.6717 56.8533 28.1475 56.2519 26.9892 55.1704C25.8309 54.0889 25.1246 52.6076 25.0127 51.025H24.9947V49.3565H37.5125ZM27.405 24.7465H35.4563V30.4568H27.405V24.7465Z" fill="url(#paint0_linear_324_2301)"/>
<defs>
<linearGradient id="paint0_linear_324_2301" x1="31.1698" y1="24.7465" x2="31.1698" y2="62.8417" gradientUnits="userSpaceOnUse">
<stop stop-color="#FFE849"/>
<stop offset="1" stop-color="#FF9E14"/>
</linearGradient>
</defs>
</svg>
