<svg width="24" height="24" viewBox="0 0 24 24" fill="none" xmlns="http://www.w3.org/2000/svg">
<path d="M2.75854 19.1925L2.84063 18.9478L2.6887 18.7392C1.31051 16.8465 0.5 14.516 0.5 12C0.5 5.65802 5.65676 0.5 11.997 0.5H12.003C18.3432 0.5 23.5 5.65948 23.5 12C23.5 18.3405 18.3432 23.5 12.003 23.5C9.6635 23.5 7.49561 22.8045 5.67763 21.6002L5.47769 21.4677L5.24925 21.5407L1.57698 22.7147L2.75854 19.1925Z" fill="none" stroke="#444444"/>
<path d="M18.9858 16.9458C18.6963 17.7633 17.5473 18.4413 16.6308 18.6393C16.0038 18.7728 15.1848 18.8793 12.4278 17.7363C8.90132 16.2753 6.63032 12.6918 6.45332 12.4593C6.28382 12.2268 5.02832 10.5618 5.02832 8.83977C5.02832 7.11777 5.90282 6.27927 6.25532 5.91927C6.54482 5.62377 7.02332 5.48877 7.48232 5.48877C7.63082 5.48877 7.76432 5.49627 7.88432 5.50227C8.23682 5.51727 8.41382 5.53827 8.64632 6.09477C8.93582 6.79227 9.64082 8.51427 9.72482 8.69127C9.81032 8.86827 9.89582 9.10827 9.77582 9.34077C9.66332 9.58077 9.56432 9.68727 9.38732 9.89127C9.21032 10.0953 9.04232 10.2513 8.86532 10.4703C8.70332 10.6608 8.52032 10.8648 8.72432 11.2173C8.92832 11.5623 9.63332 12.7128 10.6713 13.6368C12.0108 14.8293 13.0968 15.2103 13.4853 15.3723C13.7748 15.4923 14.1198 15.4638 14.3313 15.2388C14.5998 14.9493 14.9313 14.4693 15.2688 13.9968C15.5088 13.6578 15.8118 13.6158 16.1298 13.7358C16.4538 13.8483 18.1683 14.6958 18.5208 14.8713C18.8733 15.0483 19.1058 15.1323 19.1913 15.2808C19.2753 15.4293 19.2753 16.1268 18.9858 16.9458Z" fill="#444444"/>
</svg>
