<?xml version="1.0" encoding="utf-8"?>
<!-- Generator: Adobe Illustrator 21.1.0, SVG Export Plug-In . SVG Version: 6.00 Build 0)  -->
<svg version="1.1" xmlns="http://www.w3.org/2000/svg" xmlns:xlink="http://www.w3.org/1999/xlink" x="0px" y="0px"
	 viewBox="0 0 512 335.5" style="enable-background:new 0 0 512 335.5;" xml:space="preserve">
<style type="text/css">
	.st0{fill:#41479B;}
	.st1{fill:#F5F5F5;}
	.st2{fill:#FF4B55;}
</style>
<path class="st0" d="M473.7,0H38.3C17.2,0,0,17.2,0,38.3v258.8c0,21.2,17.2,38.3,38.3,38.3h435.3c21.2,0,38.3-17.2,38.3-38.3V38.3
	C512,17.2,494.8,0,473.7,0z"/>
<path class="st1" d="M511.5,32c-3-18.2-18.8-32-37.8-32h-10L300.1,107.1V0h-88.3v107.1L48.3,0h-10C19.3,0,3.6,13.8,0.5,32
	l139.8,91.6H0v88.3h140.3L0.5,303.4c3,18.2,18.8,32,37.8,32h10l163.5-107.1v107.1h88.3V228.3l163.5,107.1h10c19,0,34.8-13.8,37.8-32
	l-139.8-91.6H512v-88.3H371.7L511.5,32z"/>
<g>
	<polygon class="st2" points="282.5,0 229.5,0 229.5,141.2 0,141.2 0,194.2 229.5,194.2 229.5,335.4 282.5,335.4 282.5,194.2 
		512,194.2 512,141.2 282.5,141.2 	"/>
	<path class="st2" d="M24.8,333l186.6-121.1h-32.4L9.2,322C13.4,326.9,18.7,330.7,24.8,333z"/>
	<path class="st2" d="M346.4,211.9H314l180.7,117.3c5.1-3.3,9.3-7.8,12.3-13.1L346.4,211.9z"/>
	<path class="st2" d="M4,21.2l157.7,102.4h32.4L15.5,7.6C10.7,11.1,6.7,15.8,4,21.2z"/>
	<path class="st2" d="M332.6,123.6l170-110.4c-4.2-4.8-9.6-8.6-15.7-10.9L300.1,123.6H332.6z"/>
</g>
</svg>
