<?xml version="1.0" encoding="utf-8"?>
<!-- Generator: Adobe Illustrator 21.1.0, SVG Export Plug-In . SVG Version: 6.00 Build 0)  -->
<svg version="1.1" id="Слой_1" xmlns="http://www.w3.org/2000/svg" xmlns:xlink="http://www.w3.org/1999/xlink" x="0px" y="0px"
	 viewBox="0 0 61.9 32" style="enable-background:new 0 0 61.9 32;" xml:space="preserve">
<path d="M61.2,8l-30-8c-0.2,0-0.3,0-0.5,0l-30,8c-0.8,0.2-1,1.5,0,2l10.2,2.8v11.3c0,0.4,0.3,0.8,0.7,1l19,6c0.1,0,0.5,0,0.6,0l19-6
	c0.4-0.1,0.7-0.5,0.7-1V12.7l2-0.5V31c0,0.6,0.4,1,1,1h4c0.6,0,1-0.4,1-1V10.6l2.3-0.6C62,9.8,62.2,8.5,61.2,8z M48.9,23.3l-18,5.7
	l-18-5.7v-10L30.6,18c0.1,0,0.5,0,0.6,0l17.7-4.8V23.3z M56.9,30h-2V11.6l2-0.5V30z M30.9,16L4.8,9l26.1-7L57,9L30.9,16z"/>
</svg>
