<?xml version="1.0" encoding="utf-8"?>
<!-- Generator: Adobe Illustrator 21.1.0, SVG Export Plug-In . SVG Version: 6.00 Build 0)  -->
<svg version="1.1" id="Слой_1" xmlns="http://www.w3.org/2000/svg" xmlns:xlink="http://www.w3.org/1999/xlink" x="0px" y="0px"
	 viewBox="0 0 64 64" style="enable-background:new 0 0 64 64;" xml:space="preserve">
<path d="M38.5,47.6h-4.1V28.4c0-0.6-0.4-1-1-1h-4.5c-0.6,0-1,0.4-1,1s0.4,1,1,1h3.5v18.2h-5.1c-0.6,0-1,0.4-1,1c0,0.6,0.4,1,1,1
	h11.2c0.6,0,1-0.4,1-1C39.5,48.1,39.1,47.6,38.5,47.6z"/>
<circle cx="32" cy="18" r="3"/>
<path d="M32,0C14.3,0,0,14.3,0,32s14.3,32,32,32s32-14.3,32-32S49.7,0,32,0z M32,62C15.5,62,2,48.5,2,32C2,15.5,15.5,2,32,2
	s30,13.5,30,30C62,48.5,48.5,62,32,62z"/>
</svg>
