<?xml version="1.0" encoding="utf-8"?>
<!-- Generator: Adobe Illustrator 21.1.0, SVG Export Plug-In . SVG Version: 6.00 Build 0)  -->
<svg version="1.1" id="Слой_1" xmlns="http://www.w3.org/2000/svg" xmlns:xlink="http://www.w3.org/1999/xlink" x="0px" y="0px"
	 viewBox="0 0 46 56" style="enable-background:new 0 0 46 56;" xml:space="preserve">
<path d="M43,8h-5V3c0-1.7-1.3-3-3-3H3C1.3,0,0,1.3,0,3v42c0,1.7,1.3,3,3,3h5v5c0,1.7,1.3,3,3,3h32c1.7,0,3-1.3,3-3V11
	C46,9.3,44.7,8,43,8z M3,46c-0.6,0-1-0.4-1-1V3c0-0.6,0.4-1,1-1h32c0.6,0,1,0.4,1,1v5H11c-1.7,0-3,1.3-3,3v35H3z M44,53
	c0,0.6-0.4,1-1,1H11c-0.6,0-1-0.4-1-1V11c0-0.6,0.4-1,1-1h32c0.6,0,1,0.4,1,1V53z"/>
</svg>
