<?xml version="1.0" encoding="utf-8"?>
<!-- Generator: Adobe Illustrator 21.1.0, SVG Export Plug-In . SVG Version: 6.00 Build 0)  -->
<svg version="1.1" id="Слой_1" xmlns="http://www.w3.org/2000/svg" xmlns:xlink="http://www.w3.org/1999/xlink" x="0px" y="0px"
	 viewBox="0 0 46 51" style="enable-background:new 0 0 46 51;" xml:space="preserve">
<path d="M32.6,28.2c3.6-2.9,5.8-7.2,5.8-12.1c0-8.5-6.9-15.4-15.4-15.4S7.6,7.6,7.6,16.1c0,4.8,2.2,9.2,5.8,12.1
	C5.4,31.9,0.1,39.9,0.1,49c0,1.1,0.9,2,2,2h41.8c1.1,0,2-0.9,2-2C45.9,39.9,40.6,31.9,32.6,28.2z M2.1,49c0-9.9,6.9-18.2,16.1-20.3
	c-5-1.9-8.6-6.8-8.6-12.5c0-7.4,6-13.4,13.4-13.4s13.4,6,13.4,13.4c0,5.7-3.6,10.6-8.6,12.5C37,30.8,43.9,39.1,43.9,49H2.1z"/>
</svg>
