<?xml version="1.0" encoding="utf-8"?>
<!-- Generator: Adobe Illustrator 22.1.0, SVG Export Plug-In . SVG Version: 6.00 Build 0)  -->
<svg version="1.1" xmlns="http://www.w3.org/2000/svg" xmlns:xlink="http://www.w3.org/1999/xlink" x="0px" y="0px" viewBox="0 0 512 473.8">
	<path class="st0" d="M214.7,383.7c-24.8,0-45,20.2-45,45c0,24.8,20.2,45,45,45s45-20.2,45-45C259.7,403.9,239.5,383.7,214.7,383.7z M214.7,448.6c-11,0-19.9-8.9-19.9-19.9c0-11,8.9-19.9,19.9-19.9s19.9,8.9,19.9,19.9C234.6,439.7,225.7,448.6,214.7,448.6z"/>
	<path class="st0" d="M372.6,383.7c-24.8,0-45,20.2-45,45c0,24.8,20.2,45,45,45s45-20.2,45-45C417.7,403.9,397.5,383.7,372.6,383.7z M372.6,448.6c-11,0-19.9-8.9-19.9-19.9c0-11,8.9-19.9,19.9-19.9c11,0,19.9,8.9,19.9,19.9C392.5,439.7,383.6,448.6,372.6,448.6z"/>
	<path class="st0" d="M383.7,146.6H203.6c-6.9,0-12.6,5.6-12.6,12.6s5.6,12.6,12.6,12.6h180.1c6.9,0,12.6-5.6,12.6-12.6 C396.3,152.3,390.7,146.6,383.7,146.6z"/>
	<path class="st0" d="M373.9,211.9H213.4c-6.9,0-12.6,5.6-12.6,12.6s5.6,12.6,12.6,12.6h160.5c6.9,0,12.6-5.6,12.6-12.6 C386.5,217.6,380.9,211.9,373.9,211.9z"/>
	<path class="st0" d="M506.3,90.6c-4.8-5.9-11.9-9.3-19.5-9.3H95.3L87.4,43c-1.7-8-7.1-14.7-14.6-18L17.6,1C11.2-1.7,3.8,1.2,1,7.6 c-2.8,6.4,0.2,13.8,6.5,16.5l55.2,24l60.8,295.3c2.4,11.6,12.8,20.1,24.6,20.1h301.2c6.9,0,12.6-5.6,12.6-12.6 c0-6.9-5.6-12.6-12.6-12.6H148.2l-7.4-35.9h310.9c11.9,0,22.2-8.4,24.6-20.1l35.2-170.7C513,104.2,511.1,96.5,506.3,90.6z M451.7,277.2H135.6l-35.2-170.7l386.4,0L451.7,277.2z"/>
</svg>
