<svg fill="none" xmlns="http://www.w3.org/2000/svg" viewBox="0 0 62 79"><path fill-rule="evenodd" clip-rule="evenodd" d="M23.64 0H39.5l5.12 5.45-.03.08L37.9 24.2H25.1L18.33 5.45 23.64 0Zm3.52 23.93h4.67l8.2-6.5 1.85-5.17-14.72 11.67Zm16.97-18.6L41.93 3l-18.8 14.92 1.13 3.16L44.13 5.33Zm-23.49 5.7 1.04 2.89L38.89.27h-4.67L20.64 11.04ZM27.73.29h-3.97l-5.1 5.24.54 1.52L27.73.28Zm12.34 25.1 2.58-7.16A31.03 31.03 0 0 1 31 78.01a31.01 31.01 0 0 1-10.96-60.05L22.9 25A23.42 23.42 0 0 0 31 70.4a23.41 23.41 0 0 0 9.07-45.02ZM37.5 49.36h9.14a15.69 15.69 0 0 0-14.12-17.8 15.61 15.61 0 0 0-16.76 12.9h9.24a6.28 6.28 0 0 1 6.4-5.8 6.26 6.26 0 0 1 6.1 6.12v1.31H15.58a15.7 15.7 0 0 0 13.68 16.63A15.61 15.61 0 0 0 46.33 51H37.5v.03h-.01a6.28 6.28 0 0 1-6.25 5.83 6.25 6.25 0 0 1-6.24-5.83H25v-1.66h12.52Zm-10.1-24.61h8.05v5.7H27.4v-5.7Z" fill="url(#a)"/><defs><linearGradient id="a" x1="31.17" y1="24.75" x2="31.17" y2="62.84" gradientUnits="userSpaceOnUse"><stop stop-color="#FFE849"/><stop offset="1" stop-color="#FF9E14"/></linearGradient></defs></svg>