<svg width="383" height="480" viewBox="0 0 383 480" fill="none" xmlns="http://www.w3.org/2000/svg">
<mask id="path-1-inside-1_429_348" fill="white">
<path fill-rule="evenodd" clip-rule="evenodd" d="M146.364 0H243.906L275.392 33.5402L275.221 34.0156L234.122 148.922H155.303L113.751 33.5254L146.364 0ZM168.037 147.243H196.773L247.241 107.21L258.619 75.4153L168.037 147.243ZM272.42 32.7973L258.952 18.4675L143.169 110.278L150.181 129.741L272.42 32.7973ZM127.908 67.9199L134.29 85.6371L240.2 1.66401H211.478L127.908 67.9199ZM171.528 1.69372H147.068L115.678 33.9562L119.043 43.294L171.528 1.69372ZM247.434 156.164L263.318 112.113V112.142C333.146 140.512 382.399 209.026 382.399 289.085C382.399 394.489 296.998 480 191.651 480C86.3045 480 0.895996 394.519 0.895996 289.085C0.895996 207.37 52.1426 137.719 124.217 110.501L141.783 153.884C86.8159 174.171 47.6509 227.056 47.6509 289.085C47.6509 368.652 112.106 433.17 191.629 433.17C271.152 433.17 335.637 368.652 335.637 289.055C335.637 229.262 299.259 177.975 247.434 156.164ZM231.721 303.704H287.955C288.579 299.247 288.896 294.752 288.904 290.251C288.898 266.13 279.872 242.888 263.608 225.109C247.343 207.331 225.02 196.308 201.044 194.215C177.068 192.122 153.18 199.111 134.094 213.803C115.007 228.496 102.108 249.825 97.9413 273.581H154.762C155.519 263.707 160.031 254.502 167.365 247.867C174.7 241.231 184.297 237.672 194.174 237.925C204.052 238.177 213.455 242.222 220.442 249.224C227.43 256.226 231.467 265.65 231.721 275.55V283.625H96.7332C96.5849 285.809 96.4812 288.015 96.4812 290.251C96.4812 313.777 105.062 336.491 120.608 354.117C136.154 371.743 157.593 383.066 180.889 385.953C204.184 388.84 227.729 383.092 247.091 369.792C266.453 356.492 280.296 336.557 286.013 313.74H231.721V313.97H231.624C230.936 323.709 226.59 332.824 219.462 339.479C212.335 346.134 202.956 349.834 193.215 349.834C183.474 349.834 174.095 346.134 166.968 339.479C159.841 332.824 155.495 323.709 154.806 313.97H154.695V303.704H231.721ZM169.526 152.272H219.068V187.409H169.526V152.272Z"/>
</mask>
<path fill-rule="evenodd" clip-rule="evenodd" d="M146.364 0H243.906L275.392 33.5402L275.221 34.0156L234.122 148.922H155.303L113.751 33.5254L146.364 0ZM168.037 147.243H196.773L247.241 107.21L258.619 75.4153L168.037 147.243ZM272.42 32.7973L258.952 18.4675L143.169 110.278L150.181 129.741L272.42 32.7973ZM127.908 67.9199L134.29 85.6371L240.2 1.66401H211.478L127.908 67.9199ZM171.528 1.69372H147.068L115.678 33.9562L119.043 43.294L171.528 1.69372ZM247.434 156.164L263.318 112.113V112.142C333.146 140.512 382.399 209.026 382.399 289.085C382.399 394.489 296.998 480 191.651 480C86.3045 480 0.895996 394.519 0.895996 289.085C0.895996 207.37 52.1426 137.719 124.217 110.501L141.783 153.884C86.8159 174.171 47.6509 227.056 47.6509 289.085C47.6509 368.652 112.106 433.17 191.629 433.17C271.152 433.17 335.637 368.652 335.637 289.055C335.637 229.262 299.259 177.975 247.434 156.164ZM231.721 303.704H287.955C288.579 299.247 288.896 294.752 288.904 290.251C288.898 266.13 279.872 242.888 263.608 225.109C247.343 207.331 225.02 196.308 201.044 194.215C177.068 192.122 153.18 199.111 134.094 213.803C115.007 228.496 102.108 249.825 97.9413 273.581H154.762C155.519 263.707 160.031 254.502 167.365 247.867C174.7 241.231 184.297 237.672 194.174 237.925C204.052 238.177 213.455 242.222 220.442 249.224C227.43 256.226 231.467 265.65 231.721 275.55V283.625H96.7332C96.5849 285.809 96.4812 288.015 96.4812 290.251C96.4812 313.777 105.062 336.491 120.608 354.117C136.154 371.743 157.593 383.066 180.889 385.953C204.184 388.84 227.729 383.092 247.091 369.792C266.453 356.492 280.296 336.557 286.013 313.74H231.721V313.97H231.624C230.936 323.709 226.59 332.824 219.462 339.479C212.335 346.134 202.956 349.834 193.215 349.834C183.474 349.834 174.095 346.134 166.968 339.479C159.841 332.824 155.495 323.709 154.806 313.97H154.695V303.704H231.721ZM169.526 152.272H219.068V187.409H169.526V152.272Z" fill="white" fill-opacity="0.8"/>
<path d="M243.906 0L245.364 -1.36886L244.771 -2H243.906V0ZM146.364 0V-2H145.519L144.93 -1.39457L146.364 0ZM275.392 33.5402L277.275 34.2152L277.688 33.0635L276.85 32.1714L275.392 33.5402ZM275.221 34.0156L273.339 33.3406L273.338 33.3421L275.221 34.0156ZM234.122 148.922V150.922H235.531L236.005 149.595L234.122 148.922ZM155.303 148.922L153.421 149.599L153.897 150.922H155.303V148.922ZM113.751 33.5254L112.317 32.1308L111.446 33.0268L111.869 34.2029L113.751 33.5254ZM196.773 147.243V149.243H197.47L198.016 148.81L196.773 147.243ZM168.037 147.243L166.794 145.676L162.295 149.243H168.037V147.243ZM247.241 107.21L248.484 108.777L248.932 108.422L249.124 107.884L247.241 107.21ZM258.619 75.4153L260.502 76.0892L262.86 69.5L257.376 73.8482L258.619 75.4153ZM258.952 18.4675L260.409 17.0979L259.15 15.758L257.709 16.9004L258.952 18.4675ZM272.42 32.7973L273.663 34.3644L275.367 33.0127L273.877 31.4277L272.42 32.7973ZM143.169 110.278L141.927 108.711L140.801 109.604L141.288 110.956L143.169 110.278ZM150.181 129.741L148.299 130.419L149.243 133.037L151.424 131.308L150.181 129.741ZM134.29 85.6371L132.408 86.3149L133.351 88.9335L135.532 87.2043L134.29 85.6371ZM127.908 67.9199L126.665 66.3526L125.539 67.2455L126.026 68.5976L127.908 67.9199ZM240.2 1.66401L241.442 3.23118L245.941 -0.335991H240.2V1.66401ZM211.478 1.66401V-0.335991H210.782L210.236 0.096794L211.478 1.66401ZM147.068 1.69372V-0.306276H146.223L145.634 0.29903L147.068 1.69372ZM171.528 1.69372L172.77 3.26109L177.271 -0.306276H171.528V1.69372ZM115.678 33.9562L114.245 32.5615L113.373 33.4578L113.797 34.6343L115.678 33.9562ZM119.043 43.294L117.162 43.972L118.105 46.5897L120.286 44.8614L119.043 43.294ZM263.318 112.113H265.318L261.436 111.434L263.318 112.113ZM247.434 156.164L245.553 155.486L244.909 157.271L246.658 158.008L247.434 156.164ZM263.318 112.142H261.318V113.488L262.565 113.995L263.318 112.142ZM124.217 110.501L126.071 109.75L125.338 107.939L123.51 108.63L124.217 110.501ZM141.783 153.884L142.476 155.76L144.412 155.046L143.637 153.133L141.783 153.884ZM287.955 303.704V305.704H289.695L289.936 303.981L287.955 303.704ZM288.904 290.251L290.904 290.254V290.25L288.904 290.251ZM263.608 225.109L265.083 223.759L263.608 225.109ZM201.044 194.215L201.218 192.222L201.044 194.215ZM134.094 213.803L132.874 212.219L134.094 213.803ZM97.9413 273.581L95.9714 273.236L95.56 275.581H97.9413V273.581ZM154.762 273.581V275.581H156.614L156.756 273.734L154.762 273.581ZM167.365 247.867L166.023 246.383L167.365 247.867ZM194.174 237.925L194.123 239.924L194.174 237.925ZM220.442 249.224L219.027 250.637L220.442 249.224ZM231.721 275.55H233.721V275.524L233.72 275.498L231.721 275.55ZM231.721 283.625V285.625H233.721V283.625H231.721ZM96.7332 283.625V281.625H94.8643L94.7378 283.489L96.7332 283.625ZM96.4812 290.251H94.4812H96.4812ZM120.608 354.117L119.108 355.44H119.108L120.608 354.117ZM247.091 369.792L245.959 368.144L247.091 369.792ZM286.013 313.74L287.953 314.226L288.576 311.74H286.013V313.74ZM231.721 313.74V311.74H229.721V313.74H231.721ZM231.721 313.97V315.97H233.721V313.97H231.721ZM231.624 313.97V311.97H229.761L229.629 313.829L231.624 313.97ZM154.806 313.97L156.801 313.829L156.67 311.97H154.806V313.97ZM154.695 313.97H152.695V315.97H154.695V313.97ZM154.695 303.704V301.704H152.695V303.704H154.695ZM219.068 152.272H221.068V150.272H219.068V152.272ZM169.526 152.272V150.272H167.526V152.272H169.526ZM219.068 187.409V189.409H221.068V187.409H219.068ZM169.526 187.409H167.526V189.409H169.526V187.409ZM243.906 -2H146.364V2H243.906V-2ZM276.85 32.1714L245.364 -1.36886L242.448 1.36886L273.934 34.9091L276.85 32.1714ZM277.104 34.6907L277.275 34.2152L273.509 32.8652L273.339 33.3406L277.104 34.6907ZM236.005 149.595L277.105 34.6892L273.338 33.3421L232.239 148.248L236.005 149.595ZM155.303 150.922H234.122V146.922H155.303V150.922ZM111.869 34.2029L153.421 149.599L157.184 148.244L115.633 32.8478L111.869 34.2029ZM144.93 -1.39457L112.317 32.1308L115.185 34.9199L147.797 1.39457L144.93 -1.39457ZM196.773 145.243H168.037V149.243H196.773V145.243ZM245.998 105.643L195.53 145.676L198.016 148.81L248.484 108.777L245.998 105.643ZM256.736 74.7415L245.358 106.536L249.124 107.884L260.502 76.0892L256.736 74.7415ZM169.279 148.81L259.861 76.9824L257.376 73.8482L166.794 145.676L169.279 148.81ZM257.495 19.8372L270.962 34.167L273.877 31.4277L260.409 17.0979L257.495 19.8372ZM144.412 111.845L260.195 20.0347L257.709 16.9004L141.927 108.711L144.412 111.845ZM152.063 129.063L145.051 109.6L141.288 110.956L148.299 130.419L152.063 129.063ZM271.177 31.2303L148.938 128.174L151.424 131.308L273.663 34.3644L271.177 31.2303ZM136.171 84.9593L129.79 67.2421L126.026 68.5976L132.408 86.3149L136.171 84.9593ZM238.957 0.0968367L133.047 84.0699L135.532 87.2043L241.442 3.23118L238.957 0.0968367ZM211.478 3.66401H240.2V-0.335991H211.478V3.66401ZM129.15 69.4871L212.721 3.23122L210.236 0.096794L126.665 66.3526L129.15 69.4871ZM147.068 3.69372H171.528V-0.306276H147.068V3.69372ZM117.112 35.3509L148.501 3.08842L145.634 0.29903L114.245 32.5615L117.112 35.3509ZM120.925 42.6159L117.56 33.2782L113.797 34.6343L117.162 43.972L120.925 42.6159ZM170.285 0.126361L117.801 41.7266L120.286 44.8614L172.77 3.26109L170.285 0.126361ZM261.436 111.434L245.553 155.486L249.315 156.843L265.199 112.791L261.436 111.434ZM265.318 112.142V112.113H261.318V112.142H265.318ZM384.399 289.085C384.399 208.185 334.627 138.955 264.071 110.289L262.565 113.995C331.666 142.069 380.399 209.868 380.399 289.085H384.399ZM191.651 482C298.105 482 384.399 395.592 384.399 289.085H380.399C380.399 393.386 295.892 478 191.651 478V482ZM-1.104 289.085C-1.104 395.622 85.1983 482 191.651 482V478C87.4106 478 2.896 393.416 2.896 289.085H-1.104ZM123.51 108.63C50.6822 136.133 -1.104 206.512 -1.104 289.085H2.896C2.896 208.228 53.603 139.305 124.923 112.372L123.51 108.63ZM143.637 153.133L126.071 109.75L122.363 111.251L139.93 154.634L143.637 153.133ZM49.6509 289.085C49.6509 227.919 88.2698 175.766 142.476 155.76L141.091 152.007C85.3621 172.576 45.6509 226.192 45.6509 289.085H49.6509ZM191.629 431.17C113.212 431.17 49.6509 367.549 49.6509 289.085H45.6509C45.6509 369.755 111 435.17 191.629 435.17V431.17ZM333.637 289.055C333.637 367.549 270.047 431.17 191.629 431.17V435.17C272.258 435.17 337.637 369.756 337.637 289.055H333.637ZM246.658 158.008C297.766 179.517 333.637 230.094 333.637 289.055H337.637C337.637 228.43 300.751 176.433 248.21 154.321L246.658 158.008ZM287.955 301.704H231.721V305.704H287.955V301.704ZM286.904 290.247C286.896 294.657 286.586 299.06 285.975 303.427L289.936 303.981C290.573 299.433 290.896 294.847 290.904 290.254L286.904 290.247ZM262.132 226.459C278.059 243.869 286.898 266.63 286.904 290.251L290.904 290.25C290.898 265.631 281.686 241.907 265.083 223.759L262.132 226.459ZM200.87 196.207C224.347 198.256 246.205 209.05 262.132 226.459L265.083 223.759C248.481 205.612 225.694 194.359 201.218 192.222L200.87 196.207ZM135.314 215.388C154.004 201.001 177.394 194.158 200.87 196.207L201.218 192.222C176.743 190.086 152.357 197.221 132.874 212.219L135.314 215.388ZM99.9112 273.927C103.992 250.662 116.624 229.776 135.314 215.388L132.874 212.219C113.39 227.217 100.224 248.988 95.9714 273.236L99.9112 273.927ZM154.762 271.581H97.9413V275.581H154.762V271.581ZM166.023 246.383C158.309 253.363 153.564 263.045 152.768 273.428L156.756 273.734C157.474 264.37 161.753 255.641 168.707 249.35L166.023 246.383ZM194.225 235.925C183.834 235.66 173.738 239.404 166.023 246.383L168.707 249.35C175.661 243.058 184.759 239.685 194.123 239.924L194.225 235.925ZM221.858 247.812C214.509 240.447 204.617 236.191 194.225 235.925L194.123 239.924C203.487 240.164 212.402 243.998 219.027 250.637L221.858 247.812ZM233.72 275.498C233.453 265.088 229.207 255.176 221.858 247.812L219.027 250.637C225.652 257.276 229.481 266.212 229.721 275.601L233.72 275.498ZM233.721 283.625V275.55H229.721V283.625H233.721ZM96.7332 285.625H231.721V281.625H96.7332V285.625ZM98.4812 290.251C98.4812 288.076 98.5821 285.918 98.7286 283.76L94.7378 283.489C94.5877 285.7 94.4812 287.954 94.4812 290.251H98.4812ZM122.108 352.794C106.885 335.533 98.4812 313.29 98.4812 290.251H94.4812C94.4812 314.263 103.239 337.448 119.108 355.44L122.108 352.794ZM181.135 383.968C158.325 381.141 137.331 370.054 122.108 352.794L119.108 355.44C134.977 373.432 156.862 384.99 180.643 387.938L181.135 383.968ZM245.959 368.144C227 381.167 203.945 386.795 181.135 383.968L180.643 387.938C204.424 390.885 228.459 385.018 248.224 371.441L245.959 368.144ZM284.073 313.254C278.474 335.599 264.918 355.12 245.959 368.144L248.224 371.441C267.988 357.864 282.117 337.516 287.953 314.226L284.073 313.254ZM231.721 315.74H286.013V311.74H231.721V315.74ZM233.721 313.97V313.74H229.721V313.97H233.721ZM231.624 315.97H231.721V311.97H231.624V315.97ZM220.827 340.94C228.324 333.94 232.895 324.353 233.619 314.112L229.629 313.829C228.976 323.064 224.855 331.707 218.098 338.017L220.827 340.94ZM193.215 351.834C203.464 351.834 213.33 347.941 220.827 340.94L218.098 338.017C211.34 344.326 202.449 347.834 193.215 347.834V351.834ZM165.603 340.94C173.1 347.941 182.967 351.834 193.215 351.834V347.834C183.981 347.834 175.09 344.326 168.333 338.017L165.603 340.94ZM152.811 314.112C153.535 324.353 158.106 333.94 165.603 340.94L168.333 338.017C161.575 331.707 157.454 323.064 156.801 313.829L152.811 314.112ZM154.695 315.97H154.806V311.97H154.695V315.97ZM152.695 303.704V313.97H156.695V303.704H152.695ZM231.721 301.704H154.695V305.704H231.721V301.704ZM219.068 150.272H169.526V154.272H219.068V150.272ZM221.068 187.409V152.272H217.068V187.409H221.068ZM169.526 189.409H219.068V185.409H169.526V189.409ZM167.526 152.272V187.409H171.526V152.272H167.526Z" fill="#FFE849" fill-opacity="0.5" mask="url(#path-1-inside-1_429_348)"/>
</svg>
