<svg xmlns="http://www.w3.org/2000/svg" viewBox="123.3 32.2 595.3 530.9"><path d="M143.9 348.3h48.5v194c0 11.4 9.4 20.8 20.8 20.8h142c11.4 0 20.8-9.4 20.8-20.8v-142h86.6v142c0 11.4 9.4 20.8 20.8 20.8h135.1c11.4 0 20.8-9.4 20.8-20.8v-194H698c8.3 0 15.9-5.2 19-12.8 3.1-7.6 1.4-16.6-4.5-22.5L441.7 38.4c-8-8-21.1-8.3-29.1-.3l-283 274.6c-6.2 5.9-8 14.9-4.8 22.9 3.1 7.9 10.8 12.7 19.1 12.7zm282.6-266l221.7 224.4h-29.8c-11.4 0-20.8 9.4-20.8 20.8v194h-93.5v-142c0-11.4-9.4-20.8-20.8-20.8H355.1c-11.4 0-20.8 9.4-20.8 20.8v142H233.9v-194c0-11.4-9.4-20.8-20.8-20.8h-18L426.5 82.3z" fill="#cc2d39"/></svg>