<svg id="Layer_1" xmlns="http://www.w3.org/2000/svg" viewBox="0 0 351 212.9"><style>.st1{fill-rule:evenodd;clip-rule:evenodd;fill:#cc2e3a}</style><path d="M92 196c.2-.5.3-.7.3-.8-.6.4-1.3.8-2.1 1.3-.7.4-1.4.9-2 1.4-.4.4-.8 1-1 1.6-.3.6-.4 1.2-.4 1.8 0 .5.2.9.5 1.1.3.2.7.3 1.1.3.6 0 1.1-.1 1.5-.4.4-.3.9-.6 1.3-1l-.3-.9c-.1-.2-.1-.5-.1-.8 0-.6.2-1.3.4-1.9.2-.8.5-1.3.8-1.7zm123.8-8.3c.2.2.3.5.3.8 0 .5-.1 1-.4 1.5-.3.5-.6.9-1 1.2-.4.3-.9.5-1.5.5-.4 0-.8-.2-1-.5-.3-.3-.4-.7-.4-1.1 0-.5.2-1 .5-1.4.3-.4.8-.8 1.3-1 .4-.2.9-.4 1.4-.4.3.1.5.2.8.4zm-30.4 8.3c.2-.5.3-.7.3-.8-.6.4-1.3.8-2.1 1.3-.7.4-1.4.9-1.9 1.4-.4.4-.8 1-1.1 1.6-.3.6-.4 1.2-.4 1.8 0 .5.1.9.5 1.1.3.2.7.3 1.1.3.6 0 1.1-.1 1.5-.4.4-.3.9-.6 1.3-1l-.3-.9c-.1-.2-.1-.5-.1-.8 0-.6.2-1.3.4-1.9.2-.8.5-1.3.8-1.7zm-20.6-1.7c.2.4.2.8.2 1.4 0 .8-.1 1.5-.5 2.2l-.9 2.1c.5.1 1 0 1.4-.2.4-.2.8-.5 1.2-.8s.7-.7 1.1-1v.3c.3-.3.6-.6 1-.9 1-.9 1.8-2 2.5-3.2h-2.5c-.2 0-.6.1-1 .2l.4-.7c.5-.8.9-1.4 1.2-2 .4-.5.8-.8 1.1-1.1.4-.3.9-.5 1.5-.6.6-.1 1.3-.2 2.3-.3.3-.5.7-1 1.1-1.5.3-.5.8-.9 1.3-1.2.5-.3 1-.5 1.7-.5.3 0 .5 0 .8.1.3.1.4.3.4.6 0 .2-.1.5-.3.8-.2.3-.4.6-.6.8-.2.3-.4.5-.5.7l2.3.1c-.4.9-.8 1.6-1.1 2.3-.3.6-.6 1.1-1 1.5-.4.4-.8.6-1.5.8-.6.2-1.4.2-2.4.1-.4.6-.9 1.2-1.4 2-.5.8-.9 1.6-1.3 2.4-.4.9-.6 1.7-.6 2.4 0 .4 0 .7.3 1 .1.2.4.3.8.3s.8-.1 1.3-.4c.5-.3 1.1-.7 1.9-1.3.7-.5 1.5-1.1 2.6-1.8.1-.9.4-1.7.8-2.4.6-1 1.4-1.9 2.5-2.6 1-.8 2.1-1.5 3.3-1.9 1.2-.5 2.4-.7 3.5-.8.3 0 .6 0 .9.1.3.1.6.3.8.5.2.2.3.5.3.8 0 .2-.1.4-.3.6-.2.2-.4.3-.6.4.5.1.9.4 1.1.8.2.4.2.8.2 1.4 0 .8-.1 1.5-.5 2.2l-.9 2.1c.5.1 1 0 1.4-.2.4-.2.8-.5 1.2-.8.3-.2.5-.5.8-.8.2-.3.5-.5.7-.8-.4 0-.7-.1-.8-.3-.1-.2-.2-.4-.2-.8 0-.6.2-1.3.6-1.9.4-.6.8-1.2 1.3-1.7s1-.9 1.5-1.2c.5-.3.8-.5 1.1-.5.2 0 .3 0 .4.2.1.1.2.3.2.5v.5c-.1.2-.1.4-.2.5 1.7-.2 3-.4 4-.6 1-.1 1.6-.1 1.8.1.3.3.5.6.6 1 .2.3.3.7.3 1 0 .5-.2 1-.5 1.3-.3.4-.7.7-1 1-.4.3-.8.7-1.3 1.2-.4.4-.8.9-1.2 1.5-.3.5-.5 1-.5 1.5 0 .3.1.5.4.7.2.2.5.3.8.3.5 0 1.1-.3 1.8-.7.6-.4 1.2-.9 1.8-1.4.5-.4.9-.8 1.3-1.1.1-.2.1-.4.2-.5.5-1.1 1.1-2 1.8-2.8.7-.8 1.5-1.5 2.3-2 .7-.5 1.4-.7 2-.8.3 0 .7.1 1 .2.3.2.5.4.5.8 0 .5-.2 1-.6 1.6-.4.6-.8 1.2-1.4 1.8-.5.6-1.1 1.1-1.7 1.7-.6.5-1.1.8-1.5 1.2-.1.7 0 1.3.3 1.6.3.4.9.6 1.7.6.6 0 1.3-.2 1.9-.5l1.8-1.2c.5-.5 1.1-.9 1.6-1.3l.3 1.3c-.6.7-1.3 1.5-2.1 2.3-.8.8-1.7 1.5-2.7 2.1-1 .6-1.9.9-2.8.9-.7 0-1.3-.3-1.8-.8-.5-.4-.8-1-1.1-1.6-.2-.7-.3-1.3-.3-2v-.5l-.5.5c-.6.6-1.3 1.3-2 1.9-.8.6-1.5 1.1-2.2 1.5-.7.4-1.4.6-1.9.6s-.9-.2-1.3-.4c-.4-.3-.6-.6-.8-1-.2-.4-.3-.9-.3-1.4 0-.8.2-1.6.5-2.3.4-.7.8-1.3 1.3-2 .5-.6 1-1.3 1.5-1.9h-.1l-3.8.9c-.4.6-.9 1.2-1.4 1.6-.3.3-.6.7-.9 1-.6.8-1.3 1.4-2 1.9h-.1c-.1 0-.2 0-.3.1-.9.5-2 .8-3.3.8-.8.8-1.6 1.4-2.6 2-.9.5-2 .7-3.1.8-.6 0-1.2-.2-1.8-.6-.5-.4-1-1-1.4-1.8-.3-.6-.4-1.3-.5-2-.4.4-.9.8-1.3 1.3-.7.6-1.5 1.3-2.4 1.9-.8.6-1.6 1.1-2.5 1.5-.8.4-1.6.7-2.4.7-.7 0-1.3-.2-1.7-.7-.4-.4-.6-1-.6-1.8 0-.6.1-1.3.3-1.9.2-.6.4-1.2.6-1.7l-.1-.1-.6.5c-.4.4-.8.7-1.2 1l-.6.3c-.9.5-2 .8-3.4.8-.7.8-1.6 1.4-2.5 2-.9.5-2 .7-3.1.8-.6 0-1.2-.2-1.8-.6-.5-.4-1-1-1.4-1.8-.4-.8-.6-1.7-.6-2.8-.6.7-1.3 1.4-2.2 2.1-1 .8-2 1.5-3 2.2-1 .7-2 1.2-2.9 1.7-.9.4-1.7.7-2.4.7-.8 0-1.4-.2-1.9-.7-.5-.4-.8-1-1-1.7-.2-.7-.3-1.3-.3-2 0-1.1.3-2.3.8-3.5.5-1.2 1.1-2.3 1.9-3.5.7-1.2 1.5-2.3 2.3-3.3.8-1.1 1.6-2 2.2-2.8l-.1-.1c-1.5 1.3-2.9 2.4-4 3.4s-2.2 1.9-3.1 2.9c-1 .9-2 2-3 3.3-1 1.2-2.3 2.8-3.7 4.5-.2.2-.5.6-.9 1s-.8.8-1.3 1.1c-.4.4-.8.6-1.1.6-.5-.1-.8-.3-1.1-.8-.3-.4-.5-.9-.6-1.5-.1-.6-.2-1.1-.2-1.5 0-.5.2-1 .5-1.5s.6-1 .9-1.4l2.5-3.2c1.1-1.5 2.1-2.8 2.8-3.8.7-1 1.3-1.9 1.8-2.7.5-.8.9-1.6 1.4-2.4.3-.6.4-1 .4-1.2 0-.3-.2-.4-.4-.3-.2 0-.4.1-.6.3-.2.2-.4.3-.5.5l-8.7 9.5-5.4 7.3c-.2.3-.5.6-.8 1l-.9.9c-.3.2-.7.4-1.1.4-.5 0-.9-.3-1.3-.8s-.7-1.1-.9-1.7c-.2-.6-.4-1.1-.5-1.5l7.6-9.6c1-1.7 1.7-3.1 2.1-4.1.5-1 .8-1.8.9-2.3.1-.5.1-.9 0-1-.1-.2-.2-.3-.4-.3s-.4.1-.6.2c-.2.1-.4.2-.5.3-2.2 1-4 1.9-5.3 2.5-1.3.7-2.4 1.2-3.1 1.6-.7.4-1.1.6-1.4.8-.3.2-.6.3-.8.3h-.8c-.3 0-.5-.1-.7-.3-.2-.2-.3-.6-.1-1 .1-.7.2-1.3.3-1.9.1-.6.3-1.1.4-1.6.1-.4.2-.7.3-.8.1-.1.1-.3.3-.4.1-.1.4-.4.9-.7.4-.3 1.1-.8 2.2-1.6.1-.1.3-.2.4-.3.2-.1.4-.2.5-.2.1 0 .3 0 .4.1.1.1.1.2.1.3 0 .1-.2.3-.5.7-.3.3-.8.8-1.5 1.4l.1.1 4.1-1.9c.2-.1.5-.2 1.1-.5.6-.2 1.3-.5 2.1-.9.8-.3 1.5-.6 2.2-.8.7-.2 1.2-.4 1.6-.4.4 0 .7.2.9.4.2.2.3.5.5.8l.9 1.5.3.6c.1.2.1.5.1.8 0 .3-.1.7-.3 1.3-.2.6-.4 1.2-.7 1.8-.3.6-.5 1.3-.8 1.9-.2.5-.4 1-.5 1.3l.1.1 5.8-5.6c.5-.4 1.1-1 1.8-1.6.7-.6 1.5-1.1 2.3-1.6.8-.5 1.4-.8 1.9-.8.3 0 .6 0 1 .2.4.1.8.4 1.1.8.3.4.5.9.5 1.5 0 .7-.2 1.5-.6 2.4-.4 1-.9 2-1.5 3s-1.2 1.9-1.8 2.8c-.6.9-1.1 1.6-1.4 2.3v.1c2.2-1.9 4.4-3.9 6.6-5.9 2.2-1.9 4.5-3.8 6.9-5.8.2-.2.5-.5.9-.8.3-.3.7-.4 1-.5.3 0 .7.3 1.1.7.4.4.7.8 1 1.3s.4.9.4 1.2c0 .2-.1.5-.3.8-.2.3-.5.7-.7 1-.2.3-.4.5-.6.8l-5.7 6.9c-.6.7-1.2 1.5-1.8 2.4-.7.9-1.2 1.9-1.6 2.9-.4 1-.7 2-.7 3 0 .4.1.8.3 1.1.2.4.5.6.9.6.3 0 .9-.2 1.6-.6.8-.4 1.7-1.1 2.9-2 1-.7 2.1-1.7 3.4-3 .1-.3.2-.5.4-.8.6-1 1.5-1.9 2.5-2.6 1-.8 2.1-1.5 3.3-1.9 1.2-.5 2.3-.7 3.5-.8.3 0 .6 0 .9.1.3.1.6.3.8.5.2.2.3.5.3.8 0 .2-.1.4-.3.6-.2.2-.4.3-.6.4.6-.2 1 0 1.2.4zm-4.5 1.7c.3-.5.4-.7.4-.8-.6.4-1.3.8-2.1 1.3-.7.4-1.4.9-1.9 1.4-.4.4-.8 1-1.1 1.6-.3.6-.4 1.2-.4 1.8 0 .5.1.9.5 1.1.3.2.7.3 1.1.3.6 0 1.1-.1 1.5-.4.4-.3.9-.6 1.3-1l-.3-.9c-.1-.2-.1-.5-.1-.8 0-.6.2-1.3.4-1.9.2-.8.4-1.3.7-1.7zm-103.2-2.5c-.1-.1-.2-.1-.3-.1-1 .3-1.9.8-2.8 1.6-.9.8-1.6 1.8-2.1 3 1.1-.4 2-.9 2.9-1.5.8-.6 1.4-1.1 1.8-1.6.5-.5.7-.9.7-1.2 0 0-.1-.2-.2-.2zm-11.8-2.2c-.3-.3-.4-.7-.4-1.1 0-.5.2-1 .5-1.4.3-.4.8-.8 1.3-1 .4-.2.9-.4 1.4-.4.4 0 .7.1.9.3.3.2.4.5.4.8 0 .5-.1 1-.4 1.5-.3.5-.6.9-1.1 1.2-.4.3-.9.5-1.4.5-.6.1-.9-.1-1.2-.4zm-.9 1.2c.3 0 .7.1 1.1.2.3.2.5.4.5.8 0 .5-.2 1-.6 1.6-.4.6-.8 1.2-1.4 1.8-.5.6-1.1 1.1-1.7 1.7-.6.5-1 .8-1.4 1.2-.1.7-.1 1.3.3 1.6.3.4.9.6 1.7.6.6 0 1.3-.2 2-.5l1.8-1.2c.5-.5 1-.9 1.5-1.3l.1.3c.1-.6.3-1.3.6-1.9.5-1.1 1.3-2.2 2.3-3.1 1-.9 2-1.6 3.2-2.2 1.2-.6 2.4-.8 3.5-.8.4 0 .8 0 1.2.2.4.1.7.3 1 .5.3.3.4.6.4 1.1 0 .6-.2 1.3-.7 2-.5.7-1.4 1.5-2.7 2.4-1.2.8-3 1.6-5.4 2.3v.8c0 .7.2 1.2.6 1.5.4.3 1 .4 1.5.4.9 0 1.8-.3 2.7-.8.9-.5 1.8-1 2.6-1.7.8-.6 1.6-1.2 2.2-1.8v.1c.3-.3.6-.6 1-.9.9-.9 1.8-2 2.4-3.2h-2.5c-.2 0-.6.1-1 .2l.4-.7c.5-.8.9-1.4 1.2-2 .4-.5.8-.8 1.1-1.1.4-.3.9-.5 1.4-.6.6-.1 1.3-.2 2.3-.3.3-.5.7-1 1-1.5.3-.5.8-.9 1.3-1.2.5-.3 1.1-.5 1.8-.5.2 0 .5 0 .7.1.3.1.4.3.4.6 0 .2-.1.5-.3.8-.2.3-.4.6-.6.8-.2.3-.4.5-.5.7l2.3.1c-.4.9-.8 1.6-1.1 2.3-.3.6-.6 1.1-1 1.5-.4.4-.9.6-1.5.8-.6.2-1.4.2-2.4.1-.4.6-.9 1.2-1.5 2-.5.8-.9 1.6-1.3 2.4-.4.9-.6 1.7-.6 2.4 0 .4.1.7.3 1 .1.2.4.3.8.3s.8-.1 1.3-.4c.5-.3 1.1-.7 2-1.3.3-.2.7-.4 1-.8.5-.4.9-.8 1.3-1.3.4-.4.8-.9 1.1-1.4-.4 0-.7-.1-.8-.3-.1-.2-.2-.4-.2-.8 0-.6.2-1.3.5-1.9.4-.6.9-1.2 1.4-1.7.5-.5 1.1-.9 1.6-1.2.5-.3.8-.5 1-.5.2 0 .4 0 .5.2.1.1.1.3.1.5v.5c-.1.2-.1.4-.1.5 1.7-.2 3-.4 4-.6 1-.1 1.6-.1 1.8.1.3.3.5.6.6 1 .2.3.3.7.3 1 0 .5-.2 1-.5 1.3-.3.4-.6.7-1 1-.4.3-.8.7-1.2 1.2-.4.4-.8.9-1.1 1.5-.3.5-.5 1-.5 1.5 0 .3.1.5.4.7.2.2.5.3.8.3.5 0 1.1-.3 1.7-.7.7-.4 1.3-.9 1.8-1.4.3-.3.6-.5.8-.7.1-.9.4-1.7.9-2.4.6-1 1.4-1.9 2.4-2.6 1-.8 2.1-1.5 3.3-1.9 1.2-.5 2.4-.7 3.5-.8.3 0 .5 0 .8.1.3.1.6.3.8.5.2.2.3.5.4.8 0 .2-.1.4-.3.6-.2.2-.4.3-.6.4.5.1.9.4 1.1.8.2.4.2.8.2 1.4 0 .8-.1 1.5-.4 2.2-.3.7-.6 1.4-1 2.1.5.1 1 0 1.5-.2.4-.2.8-.5 1.2-.8s.7-.7 1.1-1l.4 1.5c-.8 1-1.6 1.8-2.6 2.2-.9.5-2 .8-3.3.8-.8.8-1.6 1.4-2.5 2-.9.5-2 .7-3.1.8-.6 0-1.2-.2-1.8-.6-.5-.4-1-1-1.3-1.8-.3-.6-.5-1.3-.6-2.1-.2.2-.4.4-.6.5-.6.6-1.3 1.3-2.1 1.9-.7.6-1.5 1.1-2.2 1.5-.7.4-1.4.6-1.9.6s-.9-.2-1.3-.4c-.4-.3-.7-.6-.9-1-.2-.4-.4-.9-.4-1.4 0-.8.2-1.6.6-2.3.4-.7.8-1.3 1.3-2 .5-.6 1-1.3 1.5-1.9H78l-3.8.9c-.4.6-.9 1.2-1.4 1.6-.3.4-.7.7-1 1.1v.3c-.5.5-1.2 1.1-1.9 1.8-.7.6-1.5 1.3-2.3 1.9-.8.6-1.7 1.1-2.5 1.5-.8.4-1.6.7-2.5.7-.7 0-1.3-.2-1.6-.7-.4-.4-.6-1-.6-1.8 0-.6.1-1.3.3-1.9.2-.6.4-1.2.6-1.7l-.1-.1-.2.2c-.7.7-1.4 1.4-2.3 2.1-1.1.9-2.2 1.7-3.5 2.4-1.2.6-2.4 1-3.6 1-.9 0-1.6-.3-2.1-.8-.6-.5-1-1-1.4-1.7-.3-.7-.4-1.5-.4-2.4-.5.6-1 1.2-1.7 1.8-.8.8-1.7 1.5-2.6 2.1-1 .6-1.9.9-2.9.9-.7 0-1.3-.3-1.8-.8-.5-.4-.8-1-1-1.6-.2-.7-.3-1.3-.3-2 0-1.1.2-2.2.7-3.2.5-1.1 1.1-2 1.9-2.8.7-.8 1.4-1.5 2.2-2 1-.2 1.6-.5 2.2-.5zm-20.7.8c-.4.1-.7.2-.9.3l-.8 1.2c.7.2 1.3.3 1.9.3.6.1 1.2.1 1.8 0 1.8-.1 3.4-.5 4.9-1.1 1.4-.6 2.6-1.3 3.6-2.2 1-.8 1.8-1.6 2.3-2.5.5-.8.6-1.5.6-2.1-.1-.4-.4-.8-.9-1.1-.5-.3-1.1-.6-1.9-.8-.8-.2-1.5-.3-2.3-.5-.8-.1-1.6-.2-2.3-.2-.7-.1-1.2-.1-1.5-.1 0 .5-.1.9-.2 1.2-.1.3-.3.6-.6 1l-3.8 5.3c.5 0 .9-.1 1.3-.1.4-.1.8-.1 1.1-.1.3 0 .4.1.4.4 0 .2-.1.3-.4.5-.3.1-.7.3-1.1.3l-1.2.3zm-10-6h-.4c-.1 0-.2-.1-.2-.3 0-.3.2-.8.6-1.4.3-.6.7-1.2 1.1-1.8.4-.6.8-1 .9-1.3.3-.5.8-.8 1.3-1 .5-.2 1-.4 1.6-.5 1.6-.5 3.2-.8 4.9-1 1.6-.2 3.3-.3 4.9-.3 3 0 5.3.3 7 .9 1.7.6 2.9 1.5 3.5 2.6.7 1.1 1 2.4 1 3.9 0 2-.6 3.7-1.6 5.3-1.1 1.6-2.6 2.9-4.5 4s-4.1 1.9-6.7 2.3c-2.6.4-5.3.5-8.2.2l-1.5 2.5c.2.1.4.1.4.3.2.1.3.2.3.5 0 .2-.2.6-.6 1.1-.4.5-.8 1.1-1.3 1.8-.1.2-.3.4-.5.7-.2.3-.5.5-.7.7-.3.2-.5.3-.9.3s-.8-.1-.9-.3c-.2-.2-.3-.5-.3-1 0-.4.1-.9.4-1.5.3-.6.6-1.3 1-2s.8-1.4 1.1-2c.4-.6.7-1.1.9-1.5-.4-.3-.8-.6-1.1-1-.3-.4-.5-.8-.5-1.4 0-.5.2-1 .7-1.4.5-.4 1-.7 1.7-1 .7-.3 1.3-.5 1.9-.7.6-.2 1.1-.4 1.6-.5l5.8-7.7c-2.1.1-4.1.4-5.8.8-1.8.4-3.2.7-4.4 1.1-1.3.3-2.1.6-2.5.6zM269 199c.8-.7 1.6-1.4 2.3-2.2.7-.7 1.1-1.4 1.3-1.9-1.6.5-2.9 1-3.8 1.4-1 .5-1.7.9-2.3 1.4-.5.4-.8.8-1 1.3-.2.5-.3 1-.4 1.7 0 .1 0 .3.1.4.1.1.3.2.4.3.1 0 .5-.2 1.2-.6.6-.5 1.4-1.1 2.2-1.8zm34.7-1.3c-.1-.4-.1-.9-.2-1.4-.1-.5-.2-1-.3-1.6l-5 4.8v.2c.6.1 1 .3 1.5.7.5.4.9.9 1.2 1.4.7-.4 1.3-.8 1.7-1.2.4-.3.7-.7.9-1.2.1-.5.2-1.1.2-1.7zm-59.4-17.9c1.3 0 2.2.4 2.8 1.2.6.7.9 1.7.9 2.9s-.4 2.6-1 4.3c-.6 1.6-1.4 3.3-2.4 5-.9 1.8-1.9 3.4-2.8 5-1 1.5-1.9 2.8-2.6 3.8.2.5.1 1.1-.2 1.7-.3.7-.7 1.2-1.2 1.7s-.9.7-1.3.8c-.3 0-.6-.1-.9-.3-.3-.2-.6-.4-.8-.7-.2-.3-.3-.5-.3-.8 0-.2.1-.5.2-.8.1-.2.2-.5.4-.7 2.1-3 3.9-5.8 5.3-8.2 1.4-2.4 2.5-4.4 3.3-6 .7-1.6 1.1-2.8 1.1-3.4 0-.3-.1-.6-.2-1-.2-.3-.4-.5-.8-.5-.5.1-1.2.3-2 .7-.9.5-1.8 1-2.8 1.8-1 .7-1.9 1.5-2.8 2.4-.8.9-1.5 1.8-2 2.7l.9-.2c.2 0 .4-.1.7-.1.3 0 .5-.1.8-.1.1 0 .1 0 .2.1s.1.2.1.3c0 .3-.2.5-.4.7-.2.2-.5.4-.7.5-.2.2-.5.4-.9.6-.4.3-.8.6-1.2.8-.4.3-.8.4-.9.4-.2 0-.5-.1-.9-.3-.4-.2-.8-.4-1.1-.6-.4-.3-.7-.6-1-.9s-.4-.6-.4-.8c.1-1.1.5-2.3 1.3-3.4.7-1.1 1.6-2.2 2.7-3.3 1.1-1 2.3-1.9 3.5-2.7 1.3-.8 2.6-1.5 3.9-2 1.2-.3 2.4-.6 3.5-.6zm77.8 7c.3.1.5.3.5.6 0 .2-.1.5-.3.8-.2.3-.4.6-.6.8-.2.3-.4.5-.6.7l2.3.1c-.4.9-.8 1.6-1.1 2.3-.3.6-.7 1.1-1 1.5-.4.4-.9.6-1.5.8-.6.2-1.4.2-2.4.1-.4.6-.9 1.2-1.4 2-.5.8-.9 1.6-1.3 2.4-.4.9-.6 1.7-.6 2.4 0 .4.1.7.3 1 .2.2.4.3.8.3s.9-.1 1.4-.4c.5-.3 1.1-.7 1.9-1.3.3-.2.7-.4 1.1-.8l1.3-1.3c.4-.4.8-.9 1.1-1.4-.4 0-.7-.1-.8-.3-.1-.2-.2-.4-.2-.8 0-.6.2-1.3.6-1.9.4-.6.8-1.2 1.3-1.7s1-.9 1.5-1.2c.5-.3.9-.5 1.1-.5.2 0 .3 0 .5.2.1.1.2.3.2.5v.5c-.1.2-.1.4-.2.5 1.7-.2 3-.4 4-.6 1-.1 1.6-.1 1.8.1.3.3.5.6.6 1 .2.3.3.7.3 1 0 .5-.2 1-.5 1.3-.3.4-.6.7-1 1-.4.3-.8.7-1.3 1.2-.4.4-.8.9-1.2 1.5-.3.5-.5 1-.5 1.5 0 .3.1.5.4.7.2.2.5.3.8.3.5 0 1.1-.3 1.8-.7.6-.4 1.2-.9 1.8-1.4.4-.4.8-.7 1.2-1l.3-1.2c.4-.9.9-1.7 1.6-2.4.6-.8 1.3-1.5 2-2.1.7-.6 1.3-1.1 1.8-1.4.6-.3 1-.5 1.1-.5.2 0 .4.1.7.3.3.2.5.4.7.7.2.3.3.5.3.6 0 .4-.3.8-.7 1.4-.4.6-.9 1.2-1.5 1.8-.6.6-1.2 1.2-1.8 1.7-.5.5-1 .9-1.3 1.2-.2.3-.4.7-.5 1-.1.3-.2.7-.2 1.1.6-.1 1.3-.3 1.8-.6.6-.3 1.2-.7 1.8-1.2.5-.4 1.1-.9 1.6-1.4 1.2-1.1 2.3-2.2 3.3-3.1.9-.9 1.7-1.5 2.3-2 .6-.6 1-.9 1.2-.9.2 0 .4.1.5.3.2.2.3.5.3.8.1.3.2.6.2.8 0 .3-.1.7-.3 1.1-.2.4-.4.8-.7 1.1-.2.4-.4.7-.6 1l-5.4 8 .1.1 8.1-7.1.3 1.3-11 12c-.1.1-.3.4-.5.7-.2.3-.5.5-.8.8-.2.2-.5.4-.7.4-.3 0-.5-.2-.6-.5-.2-.3-.3-.7-.4-1.1-.1-.4-.1-.6-.1-.8 0-.3.1-.7.3-1.2.2-.4.5-.8.7-1l4.8-8.2-.1-.1c-1 .8-1.9 1.6-2.8 2.3-.8.7-1.6 1.2-2.2 1.6-.6.4-.9.6-1.1.6-.3 0-.7-.2-1.2-.5-.4-.3-.8-.8-1.2-1.5-.3-.5-.4-1.2-.5-1.9l-.7.7c-.6.6-1.3 1.3-2.1 1.9-.8.6-1.5 1.1-2.2 1.5-.7.4-1.4.6-1.9.6s-.9-.2-1.3-.4c-.4-.3-.6-.6-.8-1-.2-.4-.3-.9-.3-1.4 0-.8.2-1.6.5-2.3.4-.7.8-1.3 1.3-2 .5-.6 1-1.3 1.5-1.9h-.1l-3.8.9c-.4.6-.9 1.2-1.4 1.6-.3.4-.7.7-1 1.1v.3c-.6.5-1.2 1.1-1.9 1.8-.7.6-1.5 1.3-2.3 1.9-.8.6-1.7 1.1-2.5 1.5-.8.4-1.6.7-2.4.7-.7 0-1.3-.2-1.7-.7-.4-.4-.6-1-.7-1.8 0-.6.2-1.3.4-1.9.2-.6.4-1.2.6-1.7v-.1l-.5.5c-.7.7-1.5 1.4-2.5 2.1-1 .8-2.1 1.5-3.2 2.1-1.1.6-2.2.9-3.2.8-.8 0-1.6-.2-2.4-.5-.8-.3-1.5-.8-2.1-1.4-.4-.5-.8-1-1-1.6-.5.5-1.1 1-1.7 1.5-.8.7-1.5 1.2-2.3 1.6-.8.4-1.5.7-2.2.7-.7 0-1.2-.3-1.6-.7-.4-.5-.5-1-.5-1.7 0-.5.1-1 .2-1.5.2-.5.3-1 .5-1.5-.4.3-.8.7-1.3 1.3-.5.5-1 .9-1.5 1.4s-1 .9-1.6 1.3c-.5.3-1 .5-1.5.6-.6 0-1.1-.2-1.5-.6-.4-.4-.7-.8-1-1.3-.2-.5-.3-1.1-.3-1.7 0-.3 0-.5.1-.8l-.9.9c-.6.6-1.3 1.3-2.1 1.8-.8.6-1.5 1.2-2.3 1.5-.8.4-1.5.6-2.1.6-.4 0-.8-.1-1.1-.4-.3-.3-.5-.6-.6-1-.1-.4-.2-.8-.2-1.2 0-.4 0-.9.1-1.4.1-.5.1-.9.2-1.4-.3.3-.8.7-1.3 1.2s-1.1 1-1.7 1.5c-.6.5-1.2 1-1.8 1.3-.6.4-1.1.6-1.5.6-.4 0-.8-.2-1.1-.6-.3-.4-.6-.8-.9-1.3-.2-.5-.4-1-.5-1.5-.1-.4-.1-.7-.2-1-.3.3-.6.6-.9 1-.7.7-1.4 1.3-2.1 2-.8.7-1.5 1.2-2.3 1.7-.8.5-1.5.7-2.2.8-.7 0-1.2-.3-1.5-.8-.3-.5-.5-1-.5-1.7s.2-1.4.5-2.2c.4-.7.8-1.5 1.3-2.2.5-.7.9-1.3 1.3-1.8l-.1-.1c-1.1.8-2.1 1.7-3 2.6-.9.9-1.8 1.9-2.6 3-.2.3-.5.6-.8 1-.3.4-.7.8-1 1-.4.3-.7.5-1 .5-.5 0-1-.3-1.3-.7-.3-.4-.5-.9-.6-1.5-.1-.5-.2-1-.2-1.4 0-.8.2-1.8.6-2.8.4-1 1-2 1.6-3 .6-.9 1.3-1.7 2.1-2.3.2-.2.4-.3.6-.4.2-.1.5-.1.8-.1.7 0 1.2.1 1.5.2.3.1.4.3.5.3.1.1.1.2 0 .3 0 .4-.3.8-.7 1.4-.4.6-1 1.2-1.6 1.8-.6.6-1.1 1.2-1.5 1.7-.5.5-.7.8-.8 1 0 .1 0 .3.1.3.1.1.2.1.3.1.2 0 .3-.1.4-.2.2-.1.3-.2.3-.3.8-1 1.7-1.9 2.8-2.9 1.1-.9 2.2-1.8 3.3-2.6 1.1-.8 2-1.5 2.9-2 .8-.5 1.4-.7 1.7-.7.1 0 .2 0 .3.2.1.1.2.3.3.5.1.3.3.6.4.9.1.3.2.7.2 1.1 0 .3-.2.8-.6 1.3-.5.5-1 1-1.5 1.6-.6.6-1.1 1.2-1.6 1.9-.4.6-.7 1.3-.7 1.8 0 .2.1.4.2.5.1.1.3.2.5.2.3 0 .7-.2 1-.3.4-.2.8-.5 1.2-.8.4-.3.7-.5.9-.7l2.1-1.9c.1-.1.2-.3.3-.4.5-.8 1.1-1.5 1.9-2.2.8-.7 1.7-1.2 2.6-1.7.9-.5 1.8-.9 2.7-1.2.9-.3 1.6-.5 2.3-.5.4 0 .7.1.9.3l.7.7c.2-.4.5-1 1-1.8.4-.8.8-1.6 1.3-2.5.5-.9 1-1.8 1.5-2.5.6-.8 1.1-1.5 1.6-2 .6-.5 1.1-.8 1.7-.8.4 0 .7.1.8.4.2.3.3.7.3 1 0 .6-.2 1.2-.6 1.8-.3.6-.6 1.2-.9 1.7l-3.8 5.7c-.4.6-.9 1.3-1.3 2s-.8 1.5-1.1 2.3c-.3.7-.5 1.5-.5 2.3v.8c0 .3.1.5.2.7.1.2.3.4.5.4.3 0 .8-.2 1.3-.5s1-.6 1.6-1c.6-.5 1.1-.9 1.6-1.3s1-.7 1.3-.9c.1-.2.2-.5.3-.7.5-1.1 1.1-2.1 1.9-3.1.8-.9 1.5-1.6 2.3-2.1.3-.2.5-.3.8-.3.3-.1.5-.1.9-.1h.8c.4 0 .7 0 1 .1.3.1.4.4.3.7 0 .2-.1.4-.3.7-.2.3-.3.5-.5.7l-.6.6c-.3.4-.6.7-.9 1l-.8.8c-.3.3-.6.5-1.1.8-.6.4-1.1.8-1.5 1.3-.4.5-.5 1.1-.5 1.9v.3c0 .1.1.2.3.2.2 0 .6-.1 1-.4.4-.2 1-.5 1.6-.9.6-.4 1.1-.9 1.7-1.4l3.6-3.3c.2-.2.5-.5 1-.9s1-.9 1.5-1.4c.5-.5 1-.9 1.5-1.3s.9-.5 1.2-.5c.1 0 .1 0 .3.1.1.1.2.3.3.5.1.3.2.7.3 1.4 0 .3-.1.6-.3.9-.2.3-.3.5-.5.7-.3.2-.5.5-.7.7l-1.5 1.5c-.6.7-1.1 1.4-1.5 2.1s-.7 1.4-.7 1.9c0 .3.1.5.3.7.1.1.4.1.7.1.5 0 1.1-.3 1.8-.6l.2-.2c.1-.2.2-.4.3-.5.2-.2.4-.4.5-.6l7.9-7.3c0-.6.2-1.2.6-1.6.3-.5.8-.7 1.5-.8.5 0 .9.1 1.1.3.2.2.3.6.4 1.1.1.7.2 1.3.4 2s.3 1.4.3 2.2c0 1-.3 1.9-.8 2.8-.4.8-1 1.5-1.7 2.1-.7.7-1.5 1.2-2.3 1.7 1.1.2 2.1 0 2.9-.3.9-.4 1.7-1 2.6-1.7l1.8-1.3c.6-.6 1.3-1.2 1.8-1.8.9-.9 1.8-2 2.5-3.2H312c-.2 0-.6.1-1.1.2l.4-.7c.5-.8.9-1.4 1.3-2 .4-.5.7-.8 1.1-1.1.4-.3.9-.5 1.5-.6.6-.1 1.4-.2 2.4-.3.3-.5.7-1 1-1.5.3-.5.7-.9 1.2-1.2.5-.3 1-.5 1.8-.5 0 .6.3.6.5.7z" fill-rule="evenodd" clip-rule="evenodd" fill="#333"/><path class="st1" d="M238.3 158.2H351v6.3H238.3z"/><path fill-rule="evenodd" clip-rule="evenodd" fill="#e9e9e9" d="M125.5 158.2h112.7v6.3H125.5z"/><path fill-rule="evenodd" clip-rule="evenodd" fill="#089446" d="M12.9 158.2h112.7v6.3H12.9z"/><path class="st1" d="M277.5 0L299 143.4h-37.3L251 60.8l-34.6 82.6h-14.8l-9.5-23.7L240.2 0h37.3zm73.3 0v143.4h-37.3V0h37.3zM83.5 47.7c0-5.4-1.6-9.7-4.8-12.9-3.1-3.2-8.4-4.8-16-4.8H12.9V0h59.4c16.9 0 29.7 4.9 38.5 14.8 7.6 8.5 11.4 19.3 11.4 32.5 0 12.9-3 23.6-9.1 32.1-7.9 11-21.1 16.4-39.5 16.4H56.8l5.1-30h.8c8.1 0 13.7-1.8 16.7-5.3 2.7-3.1 4.1-7.4 4.1-12.8zm122.7 19.9l-17.4 43.6-20.2-50.3-12.1 82.6h-37.3L143.6 0h36.9l25.7 67.6zM0 36.5h50.3v106.9H12.9V44L0 36.5z"/></svg>