<svg xmlns="http://www.w3.org/2000/svg" viewBox="123.6 0 594.8 595.3"><path d="M175.3 555.9c1.1 1.1 2.7 2.3 4.2 3.4l21 13c.8.4 1.9 1.1 2.7 1.5 31.8 14.2 67.3 21.4 102.9 21.4 61.2 0 115.9-21.4 154.6-60.1l198.6-198.6c61.6-61.6 76.9-167.2 37.1-256.7-.4-1.1-1.1-2.3-1.9-3.4L681 56.2c-.8-1.1-1.9-2.3-2.7-3.4l-35.6-35.6C631.7 6.1 616.8 0 601.5 0c-14.2 0-27.9 5.7-37.9 15.7L460.3 119c-21.8 21.8-21 57.4 1.1 79.6l40.6 40.6-138.1 138-41.3-41.3c-9.9-11.1-24.1-16.8-39.4-16.8-14.5 0-28.3 5.7-39 16.1L140.8 438.4c-10.3 10.3-16.5 24.9-17.2 39.8-.8 15.7 5 31 15.7 41.7l36 36zm-1.9-85l103.3-103.3c3.8-3.8 9.9-3.4 14.2.8l57.4 57.4c8.8 8.8 23.3 8.8 32.5 0L551 255.6c4.2-4.2 6.9-10.3 6.9-16.1 0-5.7-2.3-11.9-6.9-16.1L494.3 166c-4.2-4.2-5-11.1-1.1-14.9L596.5 47.8c1.5-1.5 3.1-2.3 5.4-2.3 3.1 0 6.5 1.5 8.8 3.8L644.3 83l11.1 16.8c36.3 84.2 11.1 164.5-28.3 203.5L428.5 502.7c-30.2 30.2-73.5 46.7-122.4 46.7-28.7 0-57.4-5.7-82.6-16.8l-17.6-10.7-34-34c-2.3-2.3-2.3-5.7-2.3-7.3.3-3.9 1.9-7.4 3.8-9.7z" fill="#cc2d39"/></svg>